<svg xmlns="http://www.w3.org/2000/svg" viewBox="0 0 1078.13172 617.02975">
  <defs>
    <style>
      .a, .b {
        fill: #fff;
      }

      .b {
        stroke: #fff;
        stroke-miterlimit: 10;
        stroke-width: 4px;
      }
    </style>
  </defs>
  <title>WHITE</title>
  <g>
    <path class="a" d="M79.7249,356.53794H194.6357a59.66946,59.66946,0,0,0-114.9108,0"/>
    <path class="a" d="M218.624,356.53794H333.5309a59.66691,59.66691,0,0,0-114.90693,0"/>
    <polygon class="a" points="351.882 167.08 351.882 42.776 38.121 42.776 38.121 356.537 61.375 356.537 61.375 303.574 61.375 299.505 61.375 282.029 351.882 282.029 351.882 276.156 138.251 276.156 138.251 234.267 351.882 234.267 351.882 228.395 61.375 228.395 61.375 167.08 351.882 167.08"/>
    <path class="a" d="M1038.11932,167.0814V42.778H724.35506V356.53841H880.68634v-13.684h157.433v-5.87665h-35.6591V320.96388h35.6591v-5.87665h-35.6591V299.07335h35.6591V293.1967h-35.6591V277.18281h35.6591v-5.87665h-35.6591V255.29227h35.6591v-5.8729h-35.6591V233.40173h35.6591v-5.8729h-35.6591V211.51494h35.6591v-5.8804h-35.6591V189.4747h35.6591V183.602h-157.433V167.0814h157.433Zm-157.433,153.88248H915.1785v16.01389H880.68634V320.96388Zm0-21.89054H915.1785v16.01389H880.68634V299.07335Zm0-21.89054H915.1785V293.1967H880.68634V277.18281Zm0-21.89054H915.1785v16.01389H880.68634V255.29227Zm0-21.89054H915.1785v16.01389H880.68634V233.40173Zm0-21.88679H915.1785v16.01389H880.68634V211.51494Zm40.54147,43.77733H955.72v16.01389H921.22781V255.29227Zm0-21.89054H955.72v16.01389H921.22781V233.40173Zm0,43.78108H955.72V293.1967H921.22781V277.18281Zm34.49192-49.654H921.22758V211.51494h34.49216v16.01389Zm-34.49192,71.54451H955.72v16.01389H921.22781V299.07335Zm40.54522,0h34.49591v16.01389H961.773V299.07335Zm0-21.89054h34.49591V293.1967H961.773V277.18281Zm0-21.89054h34.49591v16.01389H961.773V255.29227Zm0-21.89054h34.49591v16.01389H961.773V233.40173Zm0-21.88679h34.49591v16.01389H961.773V211.51494ZM921.22781,320.96388H955.72v16.01389H921.22781V320.96388Zm40.54522,0h34.49591v16.01389H961.773V320.96388Zm34.49591-115.32934H961.773V189.4747h34.49591v16.15985Zm-40.5492,0H921.22758V189.4747h34.49216v16.15985Zm-40.54123,0H880.68634V189.4747H915.1785v16.15985Z"/>
    <path class="a" d="M94.20954,456.42807H85.101a4.48215,4.48215,0,0,1-4.1301-2.17247L61.26819,427.13714A5.89584,5.89584,0,0,0,59.32988,425.31a7.05333,7.05333,0,0,0-3.2013-.55665H48.34432v31.67472H38.11875V380.5309H59.57166a46.71431,46.71431,0,0,1,12.44418,1.45862,23.75444,23.75444,0,0,1,8.65941,4.20694,16.902,16.902,0,0,1,5.06288,6.64813,22.29611,22.29611,0,0,1,1.639,8.7133,21.72183,21.72183,0,0,1-1.27436,7.51941,19.73924,19.73924,0,0,1-3.681,6.27586,21.97961,21.97961,0,0,1-5.87665,4.7404,28.75033,28.75033,0,0,1-7.865,2.96339,10.22957,10.22957,0,0,1,3.38943,3.23562Zm-35.06-39.14048a26.04485,26.04485,0,0,0,7.861-1.08612,16.13047,16.13047,0,0,0,5.71933-3.07069,12.77753,12.77753,0,0,0,3.4699-4.74063,15.44211,15.44211,0,0,0,1.16683-6.09148q0-6.78237-4.44872-10.22182-4.45053-3.44284-13.34616-3.443H48.34432v28.6537H59.14949Z"/>
    <polygon class="a" points="151.305 448.059 151.248 456.427 104.484 456.427 104.484 380.529 151.248 380.529 151.248 388.897 114.76 388.897 114.76 414.108 144.316 414.108 144.316 422.157 114.76 422.157 114.76 448.059 151.305 448.059"/>
    <path class="a" d="M227.148,380.53v75.89718h-5.13586A4.38794,4.38794,0,0,1,219.97,456.005a5.23442,5.23442,0,0,1-1.61594-1.43168L174.45024,397.373c0.069,0.883.12663,1.74655,0.15732,2.59487q0.05183,1.26686.05377,2.38379v54.07552h-9.005V380.53h5.297a7.16178,7.16178,0,0,1,1.16683.08083,3.15351,3.15351,0,0,1,.84446.261,3.40943,3.40943,0,0,1,.74466.53345,8.11544,8.11544,0,0,1,.79456.87527l43.90782,57.14644c-0.073-.92142-0.13822-1.80793-0.18813-2.67546-0.05377-.86753-0.08059-1.68517-0.08059-2.46438V380.53h9.005Z"/>
    <path class="a" d="M285.35429,392.39384a3.9528,3.9528,0,0,1-1.03645,1.19388,2.26448,2.26448,0,0,1-1.34722.39523,3.77178,3.77178,0,0,1-2.11882-.898q-1.22065-.9042-3.04773-1.98832a24.3519,24.3519,0,0,0-4.3912-1.98458,18.88552,18.88552,0,0,0-6.22209-.902,18.18,18.18,0,0,0-6.06852.92892,12.98713,12.98713,0,0,0-4.395,2.514,10.32805,10.32805,0,0,0-2.67546,3.73112,11.82831,11.82831,0,0,0-.902,4.63286,8.5523,8.5523,0,0,0,1.566,5.27408,13.39636,13.39636,0,0,0,4.13022,3.57744,31.608,31.608,0,0,0,5.82675,2.56395q3.2529,1.08834,6.67109,2.25329,3.41438,1.16847,6.67507,2.6176a23.65609,23.65609,0,0,1,5.82288,3.68122,16.7643,16.7643,0,0,1,4.134,5.45823,18.17537,18.17537,0,0,1,1.56229,7.94556,25.62588,25.62588,0,0,1-1.69665,9.34655,21.47411,21.47411,0,0,1-4.9516,7.6,23.11439,23.11439,0,0,1-7.99921,5.086,29.40194,29.40194,0,0,1-10.77448,1.85385,32.87042,32.87042,0,0,1-13.44983-2.67523,31.49646,31.49646,0,0,1-10.333-7.23172l2.967-4.87089a3.89955,3.89955,0,0,1,1.02872-.97882,2.44076,2.44076,0,0,1,1.355-.39546,2.96474,2.96474,0,0,1,1.55842.55665c0.58734,0.36852,1.24753.83684,1.98832,1.401,0.74466,0.56438,1.58911,1.18217,2.54485,1.85408a20.85343,20.85343,0,0,0,3.255,1.85385,21.82116,21.82116,0,0,0,4.16091,1.401,22.51794,22.51794,0,0,0,5.23941.55665,19.54253,19.54253,0,0,0,6.51763-1.00576,13.80976,13.80976,0,0,0,4.84793-2.83266,12.386,12.386,0,0,0,3.04387-4.37188,14.65093,14.65093,0,0,0,1.05554-5.66556,9.48663,9.48663,0,0,0-1.56217-5.63862,13.0205,13.0205,0,0,0-4.10328-3.685,28.84323,28.84323,0,0,0-5.82675-2.514q-3.28189-1.03071-6.6712-2.11882a69.81608,69.81608,0,0,1-6.675-2.518,21.37254,21.37254,0,0,1-5.82675-3.70418,17.01345,17.01345,0,0,1-4.10328-5.69227,21.842,21.842,0,0,1,0-16.23669,19.85082,19.85082,0,0,1,4.55614-6.67109,22.161,22.161,0,0,1,7.35834-4.6598,26.85787,26.85787,0,0,1,10.03744-1.7503,31.91264,31.91264,0,0,1,11.57665,2.015,27.34136,27.34136,0,0,1,9.18537,5.823Z"/>
    <path class="a" d="M342.81806,392.39384a3.9528,3.9528,0,0,1-1.03645,1.19388,2.26448,2.26448,0,0,1-1.34722.39523,3.77178,3.77178,0,0,1-2.11882-.898q-1.22065-.9042-3.04773-1.98832a24.35191,24.35191,0,0,0-4.3912-1.98458,18.88552,18.88552,0,0,0-6.22209-.902,18.18,18.18,0,0,0-6.06852.92892,12.98713,12.98713,0,0,0-4.395,2.514,10.32805,10.32805,0,0,0-2.67546,3.73112,11.82831,11.82831,0,0,0-.902,4.63286,8.5523,8.5523,0,0,0,1.566,5.27408,13.39636,13.39636,0,0,0,4.13022,3.57744,31.608,31.608,0,0,0,5.82675,2.56395q3.2529,1.08834,6.67109,2.25329,3.41438,1.16847,6.67507,2.6176a23.65609,23.65609,0,0,1,5.82288,3.68122,16.7643,16.7643,0,0,1,4.134,5.45823,18.17538,18.17538,0,0,1,1.56229,7.94556,25.62587,25.62587,0,0,1-1.69665,9.34655,21.47411,21.47411,0,0,1-4.9516,7.6,23.11439,23.11439,0,0,1-7.99921,5.086A29.40194,29.40194,0,0,1,321.58,457.27476a32.90191,32.90191,0,0,1-13.45369-2.67523,31.5205,31.5205,0,0,1-10.32912-7.23172l2.967-4.87089a3.89955,3.89955,0,0,1,1.02872-.97882,2.43165,2.43165,0,0,1,1.355-.39546,2.97569,2.97569,0,0,1,1.55842.55665c0.58734,0.36852,1.24753.83684,1.98832,1.401,0.74465,0.56438,1.58911,1.18217,2.54485,1.85408a20.85343,20.85343,0,0,0,3.255,1.85385,21.82116,21.82116,0,0,0,4.16091,1.401,22.51794,22.51794,0,0,0,5.23941.55665,19.503,19.503,0,0,0,6.51377-1.00576,13.82739,13.82739,0,0,0,4.8518-2.83266,12.386,12.386,0,0,0,3.04387-4.37188,14.65093,14.65093,0,0,0,1.05554-5.66556,9.51394,9.51394,0,0,0-1.56217-5.63862,13.0205,13.0205,0,0,0-4.10328-3.685,28.84323,28.84323,0,0,0-5.82675-2.514q-3.28189-1.03071-6.6712-2.11882a69.81608,69.81608,0,0,1-6.675-2.518,21.37254,21.37254,0,0,1-5.82675-3.70418,17.01345,17.01345,0,0,1-4.10328-5.69227,21.842,21.842,0,0,1,0-16.23669,19.85082,19.85082,0,0,1,4.55614-6.67109,22.161,22.161,0,0,1,7.35834-4.6598,26.85787,26.85787,0,0,1,10.03744-1.7503,31.91264,31.91264,0,0,1,11.57665,2.015,27.34136,27.34136,0,0,1,9.18537,5.823Z"/>
    <polygon class="a" points="408.281 448.059 408.227 456.427 361.464 456.427 361.464 380.529 408.227 380.529 408.227 388.897 371.735 388.897 371.735 414.108 401.291 414.108 401.291 422.157 371.735 422.157 371.735 448.059 408.281 448.059"/>
    <polygon class="a" points="465.693 447.792 465.693 456.429 422.633 456.429 422.633 380.532 432.851 380.532 432.851 447.792 465.693 447.792"/>
    <path class="a" d="M542.75225,456.42761H534.8068a3.40412,3.40412,0,0,1-2.22249-.69089,4.20743,4.20743,0,0,1-1.27049-1.74631l-7.10111-18.32482H490.16206l-7.09724,18.32482a3.7302,3.7302,0,0,1-1.22059,1.69641,3.39828,3.39828,0,0,1-2.22249.74079H471.68l30.34273-75.89694h10.383ZM521.357,428.24973L509.4425,397.37366c-0.357-.92142-0.72556-1.98832-1.117-3.20517q-0.58142-1.82527-1.11318-3.89606a57.433,57.433,0,0,1-2.27227,7.15487L493.0178,428.24973H521.357Z"/>
    <polygon class="a" points="595.558 448.059 595.504 456.427 548.741 456.427 548.741 380.529 595.504 380.529 595.504 388.897 559.012 388.897 559.012 414.108 588.568 414.108 588.568 422.157 559.012 422.157 559.012 448.059 595.558 448.059"/>
    <path class="a" d="M666.00361,456.42807h-9.10852a4.49249,4.49249,0,0,1-4.134-2.17247l-19.70273-27.11847a5.84947,5.84947,0,0,0-1.93456-1.82714,7.05276,7.05276,0,0,0-3.20118-.55665h-7.78813v31.67472H609.91271V380.5309h21.44916a46.72458,46.72458,0,0,1,12.448,1.45862,23.70458,23.70458,0,0,1,8.65555,4.20694,16.902,16.902,0,0,1,5.06288,6.64813,22.22851,22.22851,0,0,1,1.639,8.7133,21.81157,21.81157,0,0,1-1.27049,7.51941,19.88377,19.88377,0,0,1-3.681,6.27586,21.93814,21.93814,0,0,1-5.88051,4.7404,28.75033,28.75033,0,0,1-7.865,2.96339,10.1933,10.1933,0,0,1,3.38943,3.23562Zm-35.06391-39.14048a26.05381,26.05381,0,0,0,7.86485-1.08612,16.1299,16.1299,0,0,0,5.71921-3.07069,12.86221,12.86221,0,0,0,3.47-4.74063,15.50983,15.50983,0,0,0,1.163-6.09148q0-6.78237-4.44485-10.22182-4.45633-3.44284-13.35-3.443H620.13452v28.6537h10.80517Z"/>
    <path class="a" d="M732.68028,448.27213a21.17517,21.17517,0,0,0,8.42138-1.58888,17.65,17.65,0,0,0,6.27586-4.4527,19.5273,19.5273,0,0,0,3.92288-6.83227,27.0306,27.0306,0,0,0,1.34734-8.73625V380.53183h10.2217V426.662a34.524,34.524,0,0,1-2.092,12.17922,28.25713,28.25713,0,0,1-5.98406,9.71882,27.32821,27.32821,0,0,1-9.50773,6.437,35.25395,35.25395,0,0,1-25.207,0,27.59835,27.59835,0,0,1-9.53842-6.437,28.14378,28.14378,0,0,1-6.011-9.71882,34.61124,34.61124,0,0,1-2.092-12.17921V380.53183H712.6628v46.07256a26.94909,26.94909,0,0,0,1.34734,8.74,19.51545,19.51545,0,0,0,3.919,6.83625,17.96124,17.96124,0,0,0,6.30268,4.47566,21.125,21.125,0,0,0,8.44844,1.61582"/>
    <path class="a" d="M842.79105,380.53v75.89718h-5.13586a4.3814,4.3814,0,0,1-2.03823-.42217,5.14977,5.14977,0,0,1-1.61605-1.43168L790.09333,397.373c0.06888,0.883.12651,1.74655,0.1572,2.59487q0.052,1.26686.05388,2.38379v54.07552h-9.005V380.53h5.297a7.12616,7.12616,0,0,1,1.16671.08083,3.15438,3.15438,0,0,1,.84457.261,3.23512,3.23512,0,0,1,.74454.53345,7.74249,7.74249,0,0,1,.79467.87527l43.90782,57.14644c-0.07309-.92142-0.13448-1.80793-0.18813-2.67546-0.0499-.86753-0.08059-1.68517-0.08059-2.46438V380.53h9.005Z"/>
    <rect class="a" x="862.17364" y="380.52832" width="10.27547" height="75.89718"/>
    <path class="a" d="M961.96162,418.50537a43.81,43.81,0,0,1-2.70217,15.64935,35.9099,35.9099,0,0,1-7.62694,12.26379,34.12581,34.12581,0,0,1-11.83764,7.96852,42.55667,42.55667,0,0,1-30.53472,0,34.17657,34.17657,0,0,1-11.81468-7.96852,35.905,35.905,0,0,1-7.6232-12.26379,46.67708,46.67708,0,0,1,0-31.30222,36.15576,36.15576,0,0,1,7.6232-12.287,34.25312,34.25312,0,0,1,11.81468-8.02217,42.18578,42.18578,0,0,1,30.53472,0,34.20138,34.20138,0,0,1,11.83764,8.02217,36.16065,36.16065,0,0,1,7.62694,12.287,43.845,43.845,0,0,1,2.70217,15.65287m-10.54395,0a38.591,38.591,0,0,0-1.904-12.55148,26.65956,26.65956,0,0,0-5.40059-9.40043,23.51173,23.51173,0,0,0-8.47527-5.90734,30.86,30.86,0,0,0-22.19768,0,23.6839,23.6839,0,0,0-8.49448,5.90734,26.253,26.253,0,0,0-5.42754,9.40043,42.07689,42.07689,0,0,0,0,25.07626,26.2288,26.2288,0,0,0,5.42754,9.37349,23.383,23.383,0,0,0,8.49448,5.88063,31.24083,31.24083,0,0,0,22.19768,0,23.21432,23.21432,0,0,0,8.47527-5.88063,26.63568,26.63568,0,0,0,5.40059-9.37349,38.34225,38.34225,0,0,0,1.904-12.52478"/>
    <path class="a" d="M1038.11956,380.53v75.89718h-5.13984a4.38272,4.38272,0,0,1-2.03823-.42217,5.15176,5.15176,0,0,1-1.61582-1.43168L985.42183,397.373q0.10332,1.3245.1572,2.59487c0.03069,0.84457.05388,1.639,0.05388,2.38379v54.07552h-9.005V380.53h5.297a7.11293,7.11293,0,0,1,1.163.08083,3.1821,3.1821,0,0,1,.84832.261,3.30591,3.30591,0,0,1,.74079.53345,7.7425,7.7425,0,0,1,.79467.87527l43.90759,57.14644c-0.07286-.92142-0.13424-1.80793-0.18813-2.67546-0.0499-.86753-0.07661-1.68517-0.07661-2.46438V380.53h9.005Z"/>
    <path class="a" d="M660.35362,220.85119a34.22238,34.22238,0,0,0-5.02071-4.14158l2.28-1.83089a34.15951,34.15951,0,0,0-48.34108,0l2.326,1.86931a34.21057,34.21057,0,0,0-4.96683,4.10316l3.86138,3.10536a28.657,28.657,0,0,1,7.90714-5.61168l-1.80406-3.31645a28.71205,28.71205,0,0,1,33.7666.0499l-1.77712,3.26655a28.73178,28.73178,0,0,1,7.911,5.61168Z"/>
    <rect class="a" x="617.90407" y="223.32962" width="31.14502" height="2.93645"/>
    <polygon class="a" points="695.001 233.545 695.001 42.776 381.24 42.776 381.24 356.54 537.529 356.54 537.529 278.774 603.696 272.532 603.696 356.54 604.437 356.54 608.398 356.54 609.569 356.54 609.569 271.979 632.845 269.784 632.841 269.746 634.173 269.746 634.177 269.746 634.173 269.784 657.319 271.968 657.319 356.54 658.555 356.54 662.512 356.54 663.196 356.54 663.196 272.521 695.001 275.522 695.001 270.03 640.986 264.921 640.986 262.875 636.914 262.875 636.914 261.42 635.041 261.42 634.173 261.42 630.101 261.42 630.101 262.875 626.028 262.875 626.028 264.921 537.564 273.296 537.564 252.365 559.282 248.93 559.282 235.718 582.742 231.791 582.742 217.743 606.145 212.887 606.145 184.92 633.505 167.079 660.355 184.92 660.355 212.887 684.61 217.808 684.61 231.791 695.001 233.545"/>
    <rect class="a" x="620.10348" y="228.39262" width="26.81133" height="26.81133"/>
  </g>
  <line class="b" x1="38.12016" y1="498.11408" x2="1038.12096" y2="498.11408"/>
  <g>
    <path class="a" d="M225.09192,545.93666a2.02672,2.02672,0,0,1-.53711.61914,1.17829,1.17829,0,0,1-.70117.20508,1.95454,1.95454,0,0,1-1.09961-.4668q-0.63281-.46582-1.58105-1.03125a12.84129,12.84129,0,0,0-2.2832-1.03125,9.84667,9.84667,0,0,0-3.23047-.4668,9.45031,9.45031,0,0,0-3.14941.48047,6.72534,6.72534,0,0,0-2.28223,1.30664,5.35441,5.35441,0,0,0-1.38867,1.93945,6.14942,6.14942,0,0,0-.46777,2.40625,4.44764,4.44764,0,0,0,.81152,2.73633,7.018,7.018,0,0,0,2.14453,1.85547,16.389,16.389,0,0,0,3.02539,1.334q1.69189,0.5625,3.46484,1.168,1.77393,0.60645,3.46484,1.36133a12.14312,12.14312,0,0,1,3.02539,1.91211,8.71291,8.71291,0,0,1,2.14453,2.832,9.42923,9.42923,0,0,1,.81152,4.125,13.29685,13.29685,0,0,1-.87988,4.85352,11.20565,11.20565,0,0,1-2.57129,3.94727,12.02336,12.02336,0,0,1-4.15234,2.63867,15.25318,15.25318,0,0,1-5.59668.96289,17.06,17.06,0,0,1-6.98437-1.38867,16.39072,16.39072,0,0,1-5.3623-3.75391l1.54-2.5293a2.05047,2.05047,0,0,1,.53613-0.50977,1.25918,1.25918,0,0,1,.70117-0.20508,1.56326,1.56326,0,0,1,.81055.28711q0.4541,0.29,1.03125.73047,0.57861,0.43945,1.32031.96094a10.76889,10.76889,0,0,0,1.69141.96289,11.38571,11.38571,0,0,0,2.15918.72852,11.70034,11.70034,0,0,0,2.72168.28906,10.17782,10.17782,0,0,0,3.38281-.52148,7.2007,7.2007,0,0,0,2.5166-1.47266,6.371,6.371,0,0,0,1.58105-2.26758,7.59582,7.59582,0,0,0,.5498-2.94336,4.93138,4.93138,0,0,0-.81152-2.92773,6.72255,6.72255,0,0,0-2.13086-1.91211,14.78226,14.78226,0,0,0-3.02539-1.30664q-1.70508-.53613-3.46484-1.09961a36.28418,36.28418,0,0,1-3.46484-1.30664,11.21367,11.21367,0,0,1-3.02539-1.92383,8.84809,8.84809,0,0,1-2.13086-2.957,11.329,11.329,0,0,1,0-8.42773,10.30649,10.30649,0,0,1,2.36523-3.46484,11.53146,11.53146,0,0,1,3.82227-2.42187,13.98,13.98,0,0,1,5.21094-.90625,16.55626,16.55626,0,0,1,6.00879,1.04492,14.2008,14.2008,0,0,1,4.77148,3.02539Z"/>
    <path class="a" d="M271.18078,559.4933a22.75043,22.75043,0,0,1-1.40234,8.127,18.60583,18.60583,0,0,1-3.96,6.36719,17.70792,17.70792,0,0,1-6.14648,4.13867,22.09705,22.09705,0,0,1-15.85352,0,17.73419,17.73419,0,0,1-6.13281-4.13867,18.62067,18.62067,0,0,1-3.96-6.36719,24.24443,24.24443,0,0,1,0-16.252,18.75573,18.75573,0,0,1,3.96-6.38086,17.80119,17.80119,0,0,1,6.13281-4.166,21.90714,21.90714,0,0,1,15.85352,0,17.77422,17.77422,0,0,1,6.14648,4.166,18.74071,18.74071,0,0,1,3.96,6.38086A22.74723,22.74723,0,0,1,271.18078,559.4933Zm-5.47266,0a20.03344,20.03344,0,0,0-.98926-6.51562,13.79783,13.79783,0,0,0-2.80566-4.88281,12.18635,12.18635,0,0,0-4.39941-3.06641,16.01345,16.01345,0,0,0-11.52246,0,12.30945,12.30945,0,0,0-4.41406,3.06641,13.67658,13.67658,0,0,0-2.81934,4.88281,21.91322,21.91322,0,0,0,0,13.01953,13.69974,13.69974,0,0,0,2.81934,4.86914,12.1514,12.1514,0,0,0,4.41406,3.05078,16.17861,16.17861,0,0,0,11.52246,0,12.03074,12.03074,0,0,0,4.39941-3.05078,13.8216,13.8216,0,0,0,2.80566-4.86914A19.91062,19.91062,0,0,0,265.70813,559.4933Z"/>
    <path class="a" d="M284.13293,544.12221v13.77734h16.19824v4.34375H284.13293v16.94141h-5.335V539.7765h24.2832v4.3457H284.13293Z"/>
    <path class="a" d="M336.547,544.25893H323.78723v34.92578h-5.30762V544.25893H305.6925V539.7765H336.547v4.48242Z"/>
    <path class="a" d="M393.44446,539.7765l-12.292,39.4082h-4.78516l-9.98242-30.05859q-0.1377-.43945-0.26172-0.93359c-0.082-.33008-0.16895-0.67969-0.26074-1.04492-0.0918.36523-.18359,0.71484-0.27539,1.04492s-0.18359.64063-.27441,0.93359l-10.03809,30.05859h-4.78516l-12.292-39.4082h4.42773a1.952,1.952,0,0,1,1.19629.35742,1.58755,1.58755,0,0,1,.61816.9082l8.14063,27.38867q0.19189,0.74414.37109,1.5957,0.17871,0.85254.34375,1.81445,0.19189-.96094.39844-1.82812c0.1377-.57812.28906-1.10352,0.4541-1.582l9.26758-27.38867a2.00535,2.00535,0,0,1,.64551-0.86719,1.77456,1.77456,0,0,1,1.16895-.39844h1.54a1.777,1.777,0,0,1,1.15527.35742,2.20769,2.20769,0,0,1,.66016.9082l9.24023,27.38867c0.16406,0.47852.31543,0.99023,0.45313,1.541s0.27051,1.127.39844,1.73242c0.0918-.60547.19336-1.18164,0.30273-1.73242,0.11035-.55078.22949-1.0625,0.35742-1.541l8.168-27.38867a1.72767,1.72767,0,0,1,.61816-0.88086,1.81854,1.81854,0,0,1,1.16895-.38477h4.15234Z"/>
    <path class="a" d="M429.003,579.18471h-4.125a1.77337,1.77337,0,0,1-1.15527-.35742,2.19044,2.19044,0,0,1-.66016-0.9082l-3.68457-9.51562H401.69543l-3.68555,9.51563a1.93364,1.93364,0,0,1-.63184.88086,1.7639,1.7639,0,0,1-1.15527.38477h-4.125l15.75781-39.4082h5.38965ZM417.8927,564.55385l-6.1875-16.03125q-0.27539-.71484-0.57715-1.66406-0.30322-.94922-0.57812-2.02148a29.98044,29.98044,0,0,1-1.18262,3.71289l-6.1875,16.00391H417.8927Z"/>
    <path class="a" d="M463.32141,579.18471h-4.73047a2.33183,2.33183,0,0,1-2.14453-1.12891l-10.23047-14.07812a3.00816,3.00816,0,0,0-1.00391-.94922,3.64223,3.64223,0,0,0-1.66309-.28906h-4.043v16.44531h-5.30762V539.7765h11.1377a24.3536,24.3536,0,0,1,6.46289.75586,12.36957,12.36957,0,0,1,4.49609,2.1875,8.74965,8.74965,0,0,1,2.626,3.45117,11.534,11.534,0,0,1,.85254,4.52344,11.32528,11.32528,0,0,1-.66016,3.9043,10.30507,10.30507,0,0,1-1.91113,3.25977,11.40763,11.40763,0,0,1-3.05273,2.46094,15.09677,15.09677,0,0,1-4.083,1.53906,5.28323,5.28323,0,0,1,1.75977,1.67773Zm-18.20508-20.32227a13.5156,13.5156,0,0,0,4.084-.56445,8.36231,8.36231,0,0,0,2.96973-1.5957,6.62184,6.62184,0,0,0,1.80078-2.46094,8.03713,8.03713,0,0,0,.60547-3.16211,6.296,6.296,0,0,0-2.31055-5.30664q-2.31006-1.79-6.92969-1.78906H439.506v14.87891h5.61035Z"/>
    <path class="a" d="M492.96692,574.839l-0.02734,4.3457h-24.2832V539.7765h24.2832v4.3457H473.99133v13.08984H489.337v4.17969h-15.3457V574.839h18.97559Z"/>
    <path class="a" d="M538.80871,574.839l-0.02734,4.3457h-24.2832V539.7765h24.2832v4.3457H519.83313v13.08984h15.3457v4.17969h-15.3457V574.839h18.97559Z"/>
    <path class="a" d="M578.1886,539.7765v39.4082h-2.667a2.29462,2.29462,0,0,1-1.05957-.2207,2.68276,2.68276,0,0,1-.83887-0.74219L550.82629,548.5226q0.0542,0.68555.082,1.3457,0.02783,0.66211.02734,1.23828v28.07813h-4.6748V539.7765h2.75a3.78527,3.78527,0,0,1,.60547.041,1.52676,1.52676,0,0,1,.43945.13867,1.69556,1.69556,0,0,1,.38574.27344,4.43787,4.43787,0,0,1,.41211.45508l22.79785,29.67188q-0.05566-.71484-0.09668-1.38867t-0.041-1.2793V539.7765h4.6748Z"/>
    <path class="a" d="M620.26379,560.23744v15.125a22.08923,22.08923,0,0,1-6.33887,3.20313,24.55507,24.55507,0,0,1-7.38379,1.05859,23.73426,23.73426,0,0,1-8.58008-1.4707,18.88682,18.88682,0,0,1-6.53125-4.125,17.97861,17.97861,0,0,1-4.166-6.36719,22.14349,22.14349,0,0,1-1.458-8.168,22.88973,22.88973,0,0,1,1.416-8.2207,18.17745,18.17745,0,0,1,4.0293-6.36719,17.899,17.899,0,0,1,6.35254-4.11133,22.87372,22.87372,0,0,1,8.35938-1.457,25.85623,25.85623,0,0,1,4.3457.34375,19.85937,19.85937,0,0,1,3.71191.99023,17.53941,17.53941,0,0,1,3.16309,1.56641,19.54137,19.54137,0,0,1,2.72168,2.07617l-1.51172,2.41992a1.5658,1.5658,0,0,1-.92187.70117,1.60619,1.60619,0,0,1-1.251-.25977q-0.66064-.38672-1.5127-0.93555a13.22076,13.22076,0,0,0-2.07617-1.05859,16.63554,16.63554,0,0,0-2.8877-.86719,19.016,19.016,0,0,0-3.94629-.35742,16.01249,16.01249,0,0,0-6.02246,1.08594,12.75936,12.75936,0,0,0-4.5918,3.10742,13.74141,13.74141,0,0,0-2.915,4.89648,19.2161,19.2161,0,0,0-1.01758,6.44727,19.45149,19.45149,0,0,0,1.05859,6.64258,13.90342,13.90342,0,0,0,3.02441,4.97656,12.872,12.872,0,0,0,4.77148,3.12109,19.277,19.277,0,0,0,11.17871.45508,21.32086,21.32086,0,0,0,4.167-1.71875V564.3058h-6.13281a1.16388,1.16388,0,0,1-.83887-0.30078,0.99059,0.99059,0,0,1-.31641-0.74414v-3.02344h12.10059Z"/>
    <path class="a" d="M633.76477,579.18471h-5.335V539.7765h5.335v39.4082Z"/>
    <path class="a" d="M675.75793,539.7765v39.4082h-2.667a2.29462,2.29462,0,0,1-1.05957-.2207,2.68276,2.68276,0,0,1-.83887-0.74219L648.39563,548.5226q0.0542,0.68555.082,1.3457,0.02783,0.66211.02734,1.23828v28.07813h-4.6748V539.7765h2.75a3.78527,3.78527,0,0,1,.60547.041,1.52676,1.52676,0,0,1,.43945.13867,1.69556,1.69556,0,0,1,.38574.27344,4.43787,4.43787,0,0,1,.41211.45508l22.79785,29.67188q-0.05566-.71484-0.09668-1.38867t-0.041-1.2793V539.7765h4.6748Z"/>
    <path class="a" d="M710.13293,574.839l-0.02734,4.3457h-24.2832V539.7765h24.2832v4.3457H691.15735v13.08984H706.503v4.17969h-15.3457V574.839h18.97559Z"/>
    <path class="a" d="M741.89465,574.839l-0.02734,4.3457H717.5841V539.7765h24.2832v4.3457H722.91907v13.08984h15.3457v4.17969h-15.3457V574.839h18.97559Z"/>
    <path class="a" d="M778.46985,579.18471h-4.73047a2.33183,2.33183,0,0,1-2.14453-1.12891l-10.23047-14.07812a3.00816,3.00816,0,0,0-1.00391-.94922,3.64223,3.64223,0,0,0-1.66309-.28906h-4.043v16.44531H749.3468V539.7765h11.1377a24.3536,24.3536,0,0,1,6.46289.75586,12.36957,12.36957,0,0,1,4.49609,2.1875,8.74965,8.74965,0,0,1,2.626,3.45117,11.534,11.534,0,0,1,.85254,4.52344,11.32528,11.32528,0,0,1-.66016,3.9043,10.30507,10.30507,0,0,1-1.91113,3.25977,11.40763,11.40763,0,0,1-3.05273,2.46094,15.09677,15.09677,0,0,1-4.083,1.53906,5.28323,5.28323,0,0,1,1.75977,1.67773Zm-18.20508-20.32227a13.5156,13.5156,0,0,0,4.084-.56445,8.36231,8.36231,0,0,0,2.96973-1.5957,6.62184,6.62184,0,0,0,1.80078-2.46094,8.03713,8.03713,0,0,0,.60547-3.16211,6.296,6.296,0,0,0-2.31055-5.30664q-2.31006-1.79-6.92969-1.78906h-5.83008v14.87891h5.61035Z"/>
    <path class="a" d="M789.13879,579.18471h-5.335V539.7765h5.335v39.4082Z"/>
    <path class="a" d="M831.132,539.7765v39.4082h-2.667a2.29462,2.29462,0,0,1-1.05957-.2207,2.68276,2.68276,0,0,1-.83887-0.74219L803.76965,548.5226q0.0542,0.68555.082,1.3457,0.02783,0.66211.02734,1.23828v28.07813h-4.6748V539.7765h2.75a3.78527,3.78527,0,0,1,.60547.041,1.52676,1.52676,0,0,1,.43945.13867,1.69556,1.69556,0,0,1,.38574.27344,4.43787,4.43787,0,0,1,.41211.45508l22.79785,29.67188q-0.05566-.71484-0.09668-1.38867t-0.041-1.2793V539.7765h4.6748Z"/>
    <path class="a" d="M873.20715,560.23744v15.125a22.08923,22.08923,0,0,1-6.33887,3.20313,24.55507,24.55507,0,0,1-7.38379,1.05859,23.73427,23.73427,0,0,1-8.58008-1.4707,18.88682,18.88682,0,0,1-6.53125-4.125,17.97861,17.97861,0,0,1-4.166-6.36719,22.14349,22.14349,0,0,1-1.458-8.168,22.88973,22.88973,0,0,1,1.416-8.2207,18.17745,18.17745,0,0,1,4.0293-6.36719,17.899,17.899,0,0,1,6.35254-4.11133,22.87372,22.87372,0,0,1,8.35938-1.457,25.85623,25.85623,0,0,1,4.3457.34375,19.85936,19.85936,0,0,1,3.71191.99023,17.53941,17.53941,0,0,1,3.16309,1.56641,19.54137,19.54137,0,0,1,2.72168,2.07617l-1.51172,2.41992a1.5658,1.5658,0,0,1-.92187.70117,1.60619,1.60619,0,0,1-1.251-.25977q-0.66064-.38672-1.5127-0.93555a13.22076,13.22076,0,0,0-2.07617-1.05859,16.63554,16.63554,0,0,0-2.8877-.86719,19.016,19.016,0,0,0-3.94629-.35742,16.01249,16.01249,0,0,0-6.02246,1.08594,12.75936,12.75936,0,0,0-4.5918,3.10742,13.74141,13.74141,0,0,0-2.915,4.89648,19.2161,19.2161,0,0,0-1.01758,6.44727,19.45149,19.45149,0,0,0,1.05859,6.64258,13.90342,13.90342,0,0,0,3.02441,4.97656,12.872,12.872,0,0,0,4.77148,3.12109,19.277,19.277,0,0,0,11.17871.45508,21.32086,21.32086,0,0,0,4.167-1.71875V564.3058h-6.13281a1.16388,1.16388,0,0,1-.83887-0.30078,0.99059,0.99059,0,0,1-.31641-0.74414v-3.02344h12.10059Z"/>
  </g>
</svg>
