<svg xmlns="http://www.w3.org/2000/svg" viewBox="0 0 1078.13172 617.02975">
  <defs>
    <style>
      .a, .b {
        fill: #fff;
      }

      .b {
        stroke: #fff;
        stroke-miterlimit: 10;
        stroke-width: 4px;
      }
    </style>
  </defs>
  <title>WHITE</title>
  <g>
    <path class="a" d="M79.7249,356.53794H194.6357a59.66946,59.66946,0,0,0-114.9108,0"/>
    <path class="a" d="M218.624,356.53794H333.5309a59.66691,59.66691,0,0,0-114.90693,0"/>
    <polygon class="a" points="351.882 167.08 351.882 42.776 38.121 42.776 38.121 356.537 61.375 356.537 61.375 303.574 61.375 299.505 61.375 282.029 351.882 282.029 351.882 276.156 138.251 276.156 138.251 234.267 351.882 234.267 351.882 228.395 61.375 228.395 61.375 167.08 351.882 167.08"/>
    <path class="a" d="M1038.11932,167.0814V42.778H724.35506V356.53841H880.68634v-13.684h157.433v-5.87665h-35.6591V320.96388h35.6591v-5.87665h-35.6591V299.07335h35.6591V293.1967h-35.6591V277.18281h35.6591v-5.87665h-35.6591V255.29227h35.6591v-5.8729h-35.6591V233.40173h35.6591v-5.8729h-35.6591V211.51494h35.6591v-5.8804h-35.6591V189.4747h35.6591V183.602h-157.433V167.0814h157.433Zm-157.433,153.88248H915.1785v16.01389H880.68634V320.96388Zm0-21.89054H915.1785v16.01389H880.68634V299.07335Zm0-21.89054H915.1785V293.1967H880.68634V277.18281Zm0-21.89054H915.1785v16.01389H880.68634V255.29227Zm0-21.89054H915.1785v16.01389H880.68634V233.40173Zm0-21.88679H915.1785v16.01389H880.68634V211.51494Zm40.54147,43.77733H955.72v16.01389H921.22781V255.29227Zm0-21.89054H955.72v16.01389H921.22781V233.40173Zm0,43.78108H955.72V293.1967H921.22781V277.18281Zm34.49192-49.654H921.22758V211.51494h34.49216v16.01389Zm-34.49192,71.54451H955.72v16.01389H921.22781V299.07335Zm40.54522,0h34.49591v16.01389H961.773V299.07335Zm0-21.89054h34.49591V293.1967H961.773V277.18281Zm0-21.89054h34.49591v16.01389H961.773V255.29227Zm0-21.89054h34.49591v16.01389H961.773V233.40173Zm0-21.88679h34.49591v16.01389H961.773V211.51494ZM921.22781,320.96388H955.72v16.01389H921.22781V320.96388Zm40.54522,0h34.49591v16.01389H961.773V320.96388Zm34.49591-115.32934H961.773V189.4747h34.49591v16.15985Zm-40.5492,0H921.22758V189.4747h34.49216v16.15985Zm-40.54123,0H880.68634V189.4747H915.1785v16.15985Z"/>
    <path class="a" d="M94.20954,456.42807H85.101a4.48215,4.48215,0,0,1-4.1301-2.17247L61.26819,427.13714A5.89584,5.89584,0,0,0,59.32988,425.31a7.05333,7.05333,0,0,0-3.2013-.55665H48.34432v31.67472H38.11875V380.5309H59.57166a46.71431,46.71431,0,0,1,12.44418,1.45862,23.75444,23.75444,0,0,1,8.65941,4.20694,16.902,16.902,0,0,1,5.06288,6.64813,22.29611,22.29611,0,0,1,1.639,8.7133,21.72183,21.72183,0,0,1-1.27436,7.51941,19.73924,19.73924,0,0,1-3.681,6.27586,21.97961,21.97961,0,0,1-5.87665,4.7404,28.75033,28.75033,0,0,1-7.865,2.96339,10.22957,10.22957,0,0,1,3.38943,3.23562Zm-35.06-39.14048a26.04485,26.04485,0,0,0,7.861-1.08612,16.13047,16.13047,0,0,0,5.71933-3.07069,12.77753,12.77753,0,0,0,3.4699-4.74063,15.44211,15.44211,0,0,0,1.16683-6.09148q0-6.78237-4.44872-10.22182-4.45053-3.44284-13.34616-3.443H48.34432v28.6537H59.14949Z"/>
    <polygon class="a" points="151.305 448.059 151.248 456.427 104.484 456.427 104.484 380.529 151.248 380.529 151.248 388.897 114.76 388.897 114.76 414.108 144.316 414.108 144.316 422.157 114.76 422.157 114.76 448.059 151.305 448.059"/>
    <path class="a" d="M227.148,380.53v75.89718h-5.13586A4.38794,4.38794,0,0,1,219.97,456.005a5.23442,5.23442,0,0,1-1.61594-1.43168L174.45024,397.373c0.069,0.883.12663,1.74655,0.15732,2.59487q0.05183,1.26686.05377,2.38379v54.07552h-9.005V380.53h5.297a7.16178,7.16178,0,0,1,1.16683.08083,3.15351,3.15351,0,0,1,.84446.261,3.40943,3.40943,0,0,1,.74466.53345,8.11544,8.11544,0,0,1,.79456.87527l43.90782,57.14644c-0.073-.92142-0.13822-1.80793-0.18813-2.67546-0.05377-.86753-0.08059-1.68517-0.08059-2.46438V380.53h9.005Z"/>
    <path class="a" d="M285.35429,392.39384a3.9528,3.9528,0,0,1-1.03645,1.19388,2.26448,2.26448,0,0,1-1.34722.39523,3.77178,3.77178,0,0,1-2.11882-.898q-1.22065-.9042-3.04773-1.98832a24.3519,24.3519,0,0,0-4.3912-1.98458,18.88552,18.88552,0,0,0-6.22209-.902,18.18,18.18,0,0,0-6.06852.92892,12.98713,12.98713,0,0,0-4.395,2.514,10.32805,10.32805,0,0,0-2.67546,3.73112,11.82831,11.82831,0,0,0-.902,4.63286,8.5523,8.5523,0,0,0,1.566,5.27408,13.39636,13.39636,0,0,0,4.13022,3.57744,31.608,31.608,0,0,0,5.82675,2.56395q3.2529,1.08834,6.67109,2.25329,3.41438,1.16847,6.67507,2.6176a23.65609,23.65609,0,0,1,5.82288,3.68122,16.7643,16.7643,0,0,1,4.134,5.45823,18.17537,18.17537,0,0,1,1.56229,7.94556,25.62588,25.62588,0,0,1-1.69665,9.34655,21.47411,21.47411,0,0,1-4.9516,7.6,23.11439,23.11439,0,0,1-7.99921,5.086,29.40194,29.40194,0,0,1-10.77448,1.85385,32.87042,32.87042,0,0,1-13.44983-2.67523,31.49646,31.49646,0,0,1-10.333-7.23172l2.967-4.87089a3.89955,3.89955,0,0,1,1.02872-.97882,2.44076,2.44076,0,0,1,1.355-.39546,2.96474,2.96474,0,0,1,1.55842.55665c0.58734,0.36852,1.24753.83684,1.98832,1.401,0.74466,0.56438,1.58911,1.18217,2.54485,1.85408a20.85343,20.85343,0,0,0,3.255,1.85385,21.82116,21.82116,0,0,0,4.16091,1.401,22.51794,22.51794,0,0,0,5.23941.55665,19.54253,19.54253,0,0,0,6.51763-1.00576,13.80976,13.80976,0,0,0,4.84793-2.83266,12.386,12.386,0,0,0,3.04387-4.37188,14.65093,14.65093,0,0,0,1.05554-5.66556,9.48663,9.48663,0,0,0-1.56217-5.63862,13.0205,13.0205,0,0,0-4.10328-3.685,28.84323,28.84323,0,0,0-5.82675-2.514q-3.28189-1.03071-6.6712-2.11882a69.81608,69.81608,0,0,1-6.675-2.518,21.37254,21.37254,0,0,1-5.82675-3.70418,17.01345,17.01345,0,0,1-4.10328-5.69227,21.842,21.842,0,0,1,0-16.23669,19.85082,19.85082,0,0,1,4.55614-6.67109,22.161,22.161,0,0,1,7.35834-4.6598,26.85787,26.85787,0,0,1,10.03744-1.7503,31.91264,31.91264,0,0,1,11.57665,2.015,27.34136,27.34136,0,0,1,9.18537,5.823Z"/>
    <path class="a" d="M342.81806,392.39384a3.9528,3.9528,0,0,1-1.03645,1.19388,2.26448,2.26448,0,0,1-1.34722.39523,3.77178,3.77178,0,0,1-2.11882-.898q-1.22065-.9042-3.04773-1.98832a24.35191,24.35191,0,0,0-4.3912-1.98458,18.88552,18.88552,0,0,0-6.22209-.902,18.18,18.18,0,0,0-6.06852.92892,12.98713,12.98713,0,0,0-4.395,2.514,10.32805,10.32805,0,0,0-2.67546,3.73112,11.82831,11.82831,0,0,0-.902,4.63286,8.5523,8.5523,0,0,0,1.566,5.27408,13.39636,13.39636,0,0,0,4.13022,3.57744,31.608,31.608,0,0,0,5.82675,2.56395q3.2529,1.08834,6.67109,2.25329,3.41438,1.16847,6.67507,2.6176a23.65609,23.65609,0,0,1,5.82288,3.68122,16.7643,16.7643,0,0,1,4.134,5.45823,18.17538,18.17538,0,0,1,1.56229,7.94556,25.62587,25.62587,0,0,1-1.69665,9.34655,21.47411,21.47411,0,0,1-4.9516,7.6,23.11439,23.11439,0,0,1-7.99921,5.086A29.40194,29.40194,0,0,1,321.58,457.27476a32.90191,32.90191,0,0,1-13.45369-2.67523,31.5205,31.5205,0,0,1-10.32912-7.23172l2.967-4.87089a3.89955,3.89955,0,0,1,1.02872-.97882,2.43165,2.43165,0,0,1,1.355-.39546,2.97569,2.97569,0,0,1,1.55842.55665c0.58734,0.36852,1.24753.83684,1.98832,1.401,0.74465,0.56438,1.58911,1.18217,2.54485,1.85408a20.85343,20.85343,0,0,0,3.255,1.85385,21.82116,21.82116,0,0,0,4.16091,1.401,22.51794,22.51794,0,0,0,5.23941.55665,19.503,19.503,0,0,0,6.51377-1.00576,13.82739,13.82739,0,0,0,4.8518-2.83266,12.386,12.386,0,0,0,3.04387-4.37188,14.65093,14.65093,0,0,0,1.05554-5.66556,9.51394,9.51394,0,0,0-1.56217-5.63862,13.0205,13.0205,0,0,0-4.10328-3.685,28.84323,28.84323,0,0,0-5.82675-2.514q-3.28189-1.03071-6.6712-2.11882a69.81608,69.81608,0,0,1-6.675-2.518,21.37254,21.37254,0,0,1-5.82675-3.70418,17.01345,17.01345,0,0,1-4.10328-5.69227,21.842,21.842,0,0,1,0-16.23669,19.85082,19.85082,0,0,1,4.55614-6.67109,22.161,22.161,0,0,1,7.35834-4.6598,26.85787,26.85787,0,0,1,10.03744-1.7503,31.91264,31.91264,0,0,1,11.57665,2.015,27.34136,27.34136,0,0,1,9.18537,5.823Z"/>
    <polygon class="a" points="408.281 448.059 408.227 456.427 361.464 456.427 361.464 380.529 408.227 380.529 408.227 388.897 371.735 388.897 371.735 414.108 401.291 414.108 401.291 422.157 371.735 422.157 371.735 448.059 408.281 448.059"/>
    <polygon class="a" points="465.693 447.792 465.693 456.429 422.633 456.429 422.633 380.532 432.851 380.532 432.851 447.792 465.693 447.792"/>
    <path class="a" d="M542.75225,456.42761H534.8068a3.40412,3.40412,0,0,1-2.22249-.69089,4.20743,4.20743,0,0,1-1.27049-1.74631l-7.10111-18.32482H490.16206l-7.09724,18.32482a3.7302,3.7302,0,0,1-1.22059,1.69641,3.39828,3.39828,0,0,1-2.22249.74079H471.68l30.34273-75.89694h10.383ZM521.357,428.24973L509.4425,397.37366c-0.357-.92142-0.72556-1.98832-1.117-3.20517q-0.58142-1.82527-1.11318-3.89606a57.433,57.433,0,0,1-2.27227,7.15487L493.0178,428.24973H521.357Z"/>
    <polygon class="a" points="595.558 448.059 595.504 456.427 548.741 456.427 548.741 380.529 595.504 380.529 595.504 388.897 559.012 388.897 559.012 414.108 588.568 414.108 588.568 422.157 559.012 422.157 559.012 448.059 595.558 448.059"/>
    <path class="a" d="M666.00361,456.42807h-9.10852a4.49249,4.49249,0,0,1-4.134-2.17247l-19.70273-27.11847a5.84947,5.84947,0,0,0-1.93456-1.82714,7.05276,7.05276,0,0,0-3.20118-.55665h-7.78813v31.67472H609.91271V380.5309h21.44916a46.72458,46.72458,0,0,1,12.448,1.45862,23.70458,23.70458,0,0,1,8.65555,4.20694,16.902,16.902,0,0,1,5.06288,6.64813,22.22851,22.22851,0,0,1,1.639,8.7133,21.81157,21.81157,0,0,1-1.27049,7.51941,19.88377,19.88377,0,0,1-3.681,6.27586,21.93814,21.93814,0,0,1-5.88051,4.7404,28.75033,28.75033,0,0,1-7.865,2.96339,10.1933,10.1933,0,0,1,3.38943,3.23562Zm-35.06391-39.14048a26.05381,26.05381,0,0,0,7.86485-1.08612,16.1299,16.1299,0,0,0,5.71921-3.07069,12.86221,12.86221,0,0,0,3.47-4.74063,15.50983,15.50983,0,0,0,1.163-6.09148q0-6.78237-4.44485-10.22182-4.45633-3.44284-13.35-3.443H620.13452v28.6537h10.80517Z"/>
    <path class="a" d="M732.68028,448.27213a21.17517,21.17517,0,0,0,8.42138-1.58888,17.65,17.65,0,0,0,6.27586-4.4527,19.5273,19.5273,0,0,0,3.92288-6.83227,27.0306,27.0306,0,0,0,1.34734-8.73625V380.53183h10.2217V426.662a34.524,34.524,0,0,1-2.092,12.17922,28.25713,28.25713,0,0,1-5.98406,9.71882,27.32821,27.32821,0,0,1-9.50773,6.437,35.25395,35.25395,0,0,1-25.207,0,27.59835,27.59835,0,0,1-9.53842-6.437,28.14378,28.14378,0,0,1-6.011-9.71882,34.61124,34.61124,0,0,1-2.092-12.17921V380.53183H712.6628v46.07256a26.94909,26.94909,0,0,0,1.34734,8.74,19.51545,19.51545,0,0,0,3.919,6.83625,17.96124,17.96124,0,0,0,6.30268,4.47566,21.125,21.125,0,0,0,8.44844,1.61582"/>
    <path class="a" d="M842.79105,380.53v75.89718h-5.13586a4.3814,4.3814,0,0,1-2.03823-.42217,5.14977,5.14977,0,0,1-1.61605-1.43168L790.09333,397.373c0.06888,0.883.12651,1.74655,0.1572,2.59487q0.052,1.26686.05388,2.38379v54.07552h-9.005V380.53h5.297a7.12616,7.12616,0,0,1,1.16671.08083,3.15438,3.15438,0,0,1,.84457.261,3.23512,3.23512,0,0,1,.74454.53345,7.74249,7.74249,0,0,1,.79467.87527l43.90782,57.14644c-0.07309-.92142-0.13448-1.80793-0.18813-2.67546-0.0499-.86753-0.08059-1.68517-0.08059-2.46438V380.53h9.005Z"/>
    <rect class="a" x="862.17364" y="380.52832" width="10.27547" height="75.89718"/>
    <path class="a" d="M961.96162,418.50537a43.81,43.81,0,0,1-2.70217,15.64935,35.9099,35.9099,0,0,1-7.62694,12.26379,34.12581,34.12581,0,0,1-11.83764,7.96852,42.55667,42.55667,0,0,1-30.53472,0,34.17657,34.17657,0,0,1-11.81468-7.96852,35.905,35.905,0,0,1-7.6232-12.26379,46.67708,46.67708,0,0,1,0-31.30222,36.15576,36.15576,0,0,1,7.6232-12.287,34.25312,34.25312,0,0,1,11.81468-8.02217,42.18578,42.18578,0,0,1,30.53472,0,34.20138,34.20138,0,0,1,11.83764,8.02217,36.16065,36.16065,0,0,1,7.62694,12.287,43.845,43.845,0,0,1,2.70217,15.65287m-10.54395,0a38.591,38.591,0,0,0-1.904-12.55148,26.65956,26.65956,0,0,0-5.40059-9.40043,23.51173,23.51173,0,0,0-8.47527-5.90734,30.86,30.86,0,0,0-22.19768,0,23.6839,23.6839,0,0,0-8.49448,5.90734,26.253,26.253,0,0,0-5.42754,9.40043,42.07689,42.07689,0,0,0,0,25.07626,26.2288,26.2288,0,0,0,5.42754,9.37349,23.383,23.383,0,0,0,8.49448,5.88063,31.24083,31.24083,0,0,0,22.19768,0,23.21432,23.21432,0,0,0,8.47527-5.88063,26.63568,26.63568,0,0,0,5.40059-9.37349,38.34225,38.34225,0,0,0,1.904-12.52478"/>
    <path class="a" d="M1038.11956,380.53v75.89718h-5.13984a4.38272,4.38272,0,0,1-2.03823-.42217,5.15176,5.15176,0,0,1-1.61582-1.43168L985.42183,397.373q0.10332,1.3245.1572,2.59487c0.03069,0.84457.05388,1.639,0.05388,2.38379v54.07552h-9.005V380.53h5.297a7.11293,7.11293,0,0,1,1.163.08083,3.1821,3.1821,0,0,1,.84832.261,3.30591,3.30591,0,0,1,.74079.53345,7.7425,7.7425,0,0,1,.79467.87527l43.90759,57.14644c-0.07286-.92142-0.13424-1.80793-0.18813-2.67546-0.0499-.86753-0.07661-1.68517-0.07661-2.46438V380.53h9.005Z"/>
    <path class="a" d="M660.35362,220.85119a34.22238,34.22238,0,0,0-5.02071-4.14158l2.28-1.83089a34.15951,34.15951,0,0,0-48.34108,0l2.326,1.86931a34.21057,34.21057,0,0,0-4.96683,4.10316l3.86138,3.10536a28.657,28.657,0,0,1,7.90714-5.61168l-1.80406-3.31645a28.71205,28.71205,0,0,1,33.7666.0499l-1.77712,3.26655a28.73178,28.73178,0,0,1,7.911,5.61168Z"/>
    <rect class="a" x="617.90407" y="223.32962" width="31.14502" height="2.93645"/>
    <polygon class="a" points="695.001 233.545 695.001 42.776 381.24 42.776 381.24 356.54 537.529 356.54 537.529 278.774 603.696 272.532 603.696 356.54 604.437 356.54 608.398 356.54 609.569 356.54 609.569 271.979 632.845 269.784 632.841 269.746 634.173 269.746 634.177 269.746 634.173 269.784 657.319 271.968 657.319 356.54 658.555 356.54 662.512 356.54 663.196 356.54 663.196 272.521 695.001 275.522 695.001 270.03 640.986 264.921 640.986 262.875 636.914 262.875 636.914 261.42 635.041 261.42 634.173 261.42 630.101 261.42 630.101 262.875 626.028 262.875 626.028 264.921 537.564 273.296 537.564 252.365 559.282 248.93 559.282 235.718 582.742 231.791 582.742 217.743 606.145 212.887 606.145 184.92 633.505 167.079 660.355 184.92 660.355 212.887 684.61 217.808 684.61 231.791 695.001 233.545"/>
    <rect class="a" x="620.10348" y="228.39262" width="26.81133" height="26.81133"/>
  </g>
  <line class="b" x1="38.12016" y1="498.11408" x2="1038.12096" y2="498.11408"/>
  <g>
    <path class="a" d="M190.26322,574.9497a11.00742,11.00742,0,0,0,4.37207-.82422,9.18425,9.18425,0,0,0,3.25879-2.31055,10.10383,10.10383,0,0,0,2.03516-3.54785,14.01005,14.01005,0,0,0,.70117-4.53711V539.77783H205.938V563.73a17.98637,17.98637,0,0,1-1.08594,6.3252,14.70393,14.70393,0,0,1-3.10742,5.0459,14.21146,14.21146,0,0,1-4.93652,3.3418,18.30638,18.30638,0,0,1-13.08984,0,14.35044,14.35044,0,0,1-4.9502-3.3418,14.55884,14.55884,0,0,1-3.12109-5.0459,17.96449,17.96449,0,0,1-1.08691-6.3252V539.77783h5.30762v23.9248a14.03653,14.03653,0,0,0,.70117,4.53711,10.10383,10.10383,0,0,0,2.03516,3.54785,9.28718,9.28718,0,0,0,3.27246,2.32324A10.94153,10.94153,0,0,0,190.26322,574.9497Z"/>
    <path class="a" d="M247.4351,539.77783v39.40723h-2.667a2.295,2.295,0,0,1-1.05957-.21973,2.67479,2.67479,0,0,1-.83887-0.74316l-22.79687-29.69922q0.0542,0.687.082,1.34668,0.02783,0.66064.02734,1.23828v28.07715h-4.6748V539.77783h2.75a3.78527,3.78527,0,0,1,.60547.041,1.5264,1.5264,0,0,1,.43945.1377,1.70168,1.70168,0,0,1,.38574.27441,4.41759,4.41759,0,0,1,.41211.4541L242.898,570.35791q-0.05566-.71484-0.09668-1.38867t-0.041-1.2793V539.77783h4.6748Z"/>
    <path class="a" d="M291.65385,559.49462a22.19875,22.19875,0,0,1-1.40234,8.05762,17.86977,17.86977,0,0,1-3.96,6.21484,17.62868,17.62868,0,0,1-6.14648,4.002,21.43356,21.43356,0,0,1-7.93359,1.416H257.49857V539.77783h14.71289a21.43356,21.43356,0,0,1,7.93359,1.416,17.53565,17.53565,0,0,1,6.14648,4.01465,18.01394,18.01394,0,0,1,3.96,6.22949A22.19715,22.19715,0,0,1,291.65385,559.49462Zm-5.47266,0a19.76856,19.76856,0,0,0-.99023-6.48926,13.65434,13.65434,0,0,0-2.80469-4.83984,11.96615,11.96615,0,0,0-4.40039-3.02539,15.2875,15.2875,0,0,0-5.77441-1.04492h-9.37793v30.77246h9.37793a15.2875,15.2875,0,0,0,5.77441-1.04492,12.02792,12.02792,0,0,0,4.40039-3.01172,13.51588,13.51588,0,0,0,2.80469-4.82617A19.77045,19.77045,0,0,0,286.18119,559.49462Z"/>
    <path class="a" d="M323.63725,574.84033l-0.02734,4.34473H299.3267V539.77783h24.2832v4.34473H304.66166V557.2124h15.3457v4.17969h-15.3457v13.44824h18.97559Z"/>
    <path class="a" d="M360.21146,579.18505H355.481a2.33109,2.33109,0,0,1-2.14453-1.12793L343.106,563.978a3.02809,3.02809,0,0,0-1.00391-.94922,3.65541,3.65541,0,0,0-1.66309-.28906h-4.043v16.44531h-5.30762V539.77783h11.1377a24.3536,24.3536,0,0,1,6.46289.75586,12.353,12.353,0,0,1,4.49609,2.18652,8.74965,8.74965,0,0,1,2.626,3.45117,11.534,11.534,0,0,1,.85254,4.52344,11.33085,11.33085,0,0,1-.66016,3.90527,10.31124,10.31124,0,0,1-1.91113,3.25879,11.40763,11.40763,0,0,1-3.05273,2.46094,15.0656,15.0656,0,0,1-4.083,1.54,5.27355,5.27355,0,0,1,1.75977,1.67773Zm-18.20508-20.32227a13.485,13.485,0,0,0,4.084-.56445,8.36089,8.36089,0,0,0,2.96973-1.59473,6.62184,6.62184,0,0,0,1.80078-2.46094,8.03856,8.03856,0,0,0,.60547-3.16309,6.296,6.296,0,0,0-2.31055-5.30664q-2.31006-1.78857-6.92969-1.78809H336.396v14.87793h5.61035Z"/>
    <path class="a" d="M397.1724,560.23779v15.125a22.08922,22.08922,0,0,1-6.33887,3.20313,24.5238,24.5238,0,0,1-7.38379,1.05957,23.71319,23.71319,0,0,1-8.58008-1.47168,18.88682,18.88682,0,0,1-6.53125-4.125,17.966,17.966,0,0,1-4.166-6.36621,22.14349,22.14349,0,0,1-1.458-8.168,22.89513,22.89513,0,0,1,1.416-8.22168,18.17331,18.17331,0,0,1,4.0293-6.36621,17.88574,17.88574,0,0,1,6.35254-4.11133,22.85323,22.85323,0,0,1,8.35938-1.458,25.85621,25.85621,0,0,1,4.3457.34375,20.01074,20.01074,0,0,1,3.71191.99023,17.54253,17.54253,0,0,1,3.16309,1.56738,19.46621,19.46621,0,0,1,2.72168,2.07617l-1.51172,2.41992a1.56967,1.56967,0,0,1-.92187.70117,1.60309,1.60309,0,0,1-1.251-.26074q-0.66064-.38525-1.5127-0.93555a13.30492,13.30492,0,0,0-2.07617-1.05859,16.72512,16.72512,0,0,0-2.8877-.86621,19.016,19.016,0,0,0-3.94629-.35742,15.99332,15.99332,0,0,0-6.02246,1.08594,12.747,12.747,0,0,0-4.5918,3.10742,13.73713,13.73713,0,0,0-2.915,4.89551,19.222,19.222,0,0,0-1.01758,6.44824,19.44572,19.44572,0,0,0,1.05859,6.6416,13.89916,13.89916,0,0,0,3.02441,4.97754,12.884,12.884,0,0,0,4.77148,3.12109,19.26443,19.26443,0,0,0,11.17871.4541,21.20131,21.20131,0,0,0,4.167-1.71875v-8.66309h-6.13281a1.16445,1.16445,0,0,1-.83887-0.30176,0.98848,0.98848,0,0,1-.31641-0.74316v-3.02441H397.1724Z"/>
    <path class="a" d="M434.46244,579.18505H429.732a2.33109,2.33109,0,0,1-2.14453-1.12793L417.357,563.978a3.02809,3.02809,0,0,0-1.00391-.94922,3.65541,3.65541,0,0,0-1.66309-.28906h-4.043v16.44531h-5.30762V539.77783h11.1377a24.3536,24.3536,0,0,1,6.46289.75586,12.353,12.353,0,0,1,4.49609,2.18652,8.74965,8.74965,0,0,1,2.626,3.45117,11.534,11.534,0,0,1,.85254,4.52344,11.33085,11.33085,0,0,1-.66016,3.90527,10.31123,10.31123,0,0,1-1.91113,3.25879,11.40763,11.40763,0,0,1-3.05273,2.46094,15.06559,15.06559,0,0,1-4.083,1.54,5.27355,5.27355,0,0,1,1.75977,1.67773Zm-18.20508-20.32227a13.485,13.485,0,0,0,4.084-.56445,8.36089,8.36089,0,0,0,2.96973-1.59473,6.62184,6.62184,0,0,0,1.80078-2.46094,8.03856,8.03856,0,0,0,.60547-3.16309,6.296,6.296,0,0,0-2.31055-5.30664q-2.31006-1.78857-6.92969-1.78809H410.647v14.87793h5.61035Z"/>
    <path class="a" d="M471.83451,579.18505h-4.125a1.77337,1.77337,0,0,1-1.15527-.35742,2.19358,2.19358,0,0,1-.66016-0.90723l-3.68457-9.51562H444.52689l-3.68555,9.51563a1.92611,1.92611,0,0,1-.63184.87988,1.75863,1.75863,0,0,1-1.15527.38477h-4.125L450.687,539.77783h5.38965Zm-11.11035-14.62988-6.1875-16.03223q-0.27539-.71484-0.57715-1.66406-0.30322-.94922-0.57812-2.02148a29.9267,29.9267,0,0,1-1.18262,3.71289l-6.1875,16.00488h14.71289Z"/>
    <path class="a" d="M511.18607,559.49462a22.19876,22.19876,0,0,1-1.40234,8.05762,17.86977,17.86977,0,0,1-3.96,6.21484,17.62868,17.62868,0,0,1-6.14648,4.002,21.43356,21.43356,0,0,1-7.93359,1.416H477.0308V539.77783h14.71289a21.43356,21.43356,0,0,1,7.93359,1.416,17.53565,17.53565,0,0,1,6.14648,4.01465,18.01394,18.01394,0,0,1,3.96,6.22949A22.19715,22.19715,0,0,1,511.18607,559.49462Zm-5.47266,0a19.76856,19.76856,0,0,0-.99023-6.48926,13.65434,13.65434,0,0,0-2.80469-4.83984,11.96615,11.96615,0,0,0-4.40039-3.02539,15.2875,15.2875,0,0,0-5.77441-1.04492h-9.37793v30.77246h9.37793a15.2875,15.2875,0,0,0,5.77441-1.04492,12.02792,12.02792,0,0,0,4.40039-3.01172,13.51588,13.51588,0,0,0,2.80469-4.82617A19.77045,19.77045,0,0,0,505.71342,559.49462Z"/>
    <path class="a" d="M534.066,574.9497a11.00742,11.00742,0,0,0,4.37207-.82422,9.18425,9.18425,0,0,0,3.25879-2.31055,10.10383,10.10383,0,0,0,2.03516-3.54785,14.01006,14.01006,0,0,0,.70117-4.53711V539.77783h5.30762V563.73a17.98637,17.98637,0,0,1-1.08594,6.3252,14.70393,14.70393,0,0,1-3.10742,5.0459,14.21146,14.21146,0,0,1-4.93652,3.3418,18.30638,18.30638,0,0,1-13.08984,0,14.35044,14.35044,0,0,1-4.9502-3.3418,14.55884,14.55884,0,0,1-3.12109-5.0459,17.96449,17.96449,0,0,1-1.08691-6.3252V539.77783h5.30762v23.9248a14.03653,14.03653,0,0,0,.70117,4.53711,10.10383,10.10383,0,0,0,2.03516,3.54785,9.28718,9.28718,0,0,0,3.27246,2.32324A10.94153,10.94153,0,0,0,534.066,574.9497Z"/>
    <path class="a" d="M590.441,579.18505h-4.125a1.77337,1.77337,0,0,1-1.15527-.35742,2.19359,2.19359,0,0,1-.66016-0.90723l-3.68457-9.51562H563.13334l-3.68555,9.51563a1.92611,1.92611,0,0,1-.63184.87988,1.75863,1.75863,0,0,1-1.15527.38477h-4.125l15.75781-39.40723h5.38965ZM579.3306,564.55517l-6.1875-16.03223q-0.27539-.71484-0.57715-1.66406-0.30322-.94922-0.57812-2.02148a29.9267,29.9267,0,0,1-1.18262,3.71289l-6.1875,16.00488H579.3306Z"/>
    <path class="a" d="M618.40678,544.26025H605.647v34.9248h-5.30762v-34.9248H587.55228v-4.48242h30.85449v4.48242Z"/>
    <path class="a" d="M648.5474,574.84033l-0.02734,4.34473h-24.2832V539.77783h24.2832v4.34473H629.57182V557.2124h15.3457v4.17969h-15.3457v13.44824H648.5474Z"/>
    <path class="a" d="M697.74467,571.04541a1.0207,1.0207,0,0,1,.77051.35742l2.11719,2.28223a16.85524,16.85524,0,0,1-5.87109,4.37207,20.07991,20.07991,0,0,1-8.34668,1.56836,19.49512,19.49512,0,0,1-7.69922-1.47168,16.92536,16.92536,0,0,1-5.91309-4.125,18.64325,18.64325,0,0,1-3.79492-6.36621,23.77721,23.77721,0,0,1-1.34766-8.168,22.94607,22.94607,0,0,1,1.40234-8.167,18.71153,18.71153,0,0,1,3.94629-6.37988,17.64566,17.64566,0,0,1,6.0918-4.13867,20.27437,20.27437,0,0,1,7.83691-1.47168,19.09448,19.09448,0,0,1,7.42578,1.34766,18.712,18.712,0,0,1,5.665,3.65723l-1.76074,2.44824a1.44192,1.44192,0,0,1-.42578.45313,1.22483,1.22483,0,0,1-.70117.17871,2.18119,2.18119,0,0,1-1.21-.53613,18.62773,18.62773,0,0,0-1.87012-1.19629,13.91058,13.91058,0,0,0-7.15039-1.73242,14.33219,14.33219,0,0,0-5.582,1.05859,12.19563,12.19563,0,0,0-4.35937,3.06641,14.14324,14.14324,0,0,0-2.8457,4.89551,19.51588,19.51588,0,0,0-1.01758,6.5166,19.01271,19.01271,0,0,0,1.05859,6.57324,14.50605,14.50605,0,0,0,2.8877,4.88086,12.19659,12.19659,0,0,0,4.31738,3.03906,13.751,13.751,0,0,0,5.376,1.04492,22.30733,22.30733,0,0,0,3.17676-.20605,13.02485,13.02485,0,0,0,2.6123-.64648,10.91912,10.91912,0,0,0,2.22754-1.11426,15.83679,15.83679,0,0,0,2.04883-1.6084A1.41875,1.41875,0,0,1,697.74467,571.04541Z"/>
    <path class="a" d="M742.46049,559.49462a22.75806,22.75806,0,0,1-1.40234,8.127,18.60154,18.60154,0,0,1-3.96,6.36621,17.69454,17.69454,0,0,1-6.14648,4.13867,22.09705,22.09705,0,0,1-15.85352,0,17.72073,17.72073,0,0,1-6.13281-4.13867,18.61637,18.61637,0,0,1-3.96-6.36621,24.24726,24.24726,0,0,1,0-16.25293,18.76082,18.76082,0,0,1,3.96-6.37988,17.80119,17.80119,0,0,1,6.13281-4.166,21.89371,21.89371,0,0,1,15.85352,0,17.77422,17.77422,0,0,1,6.14648,4.166,18.74579,18.74579,0,0,1,3.96,6.37988A22.75646,22.75646,0,0,1,742.46049,559.49462Zm-5.47266,0a20.0437,20.0437,0,0,0-.98926-6.5166,13.78478,13.78478,0,0,0-2.80566-4.88184,12.17442,12.17442,0,0,0-4.39941-3.06641,16.01345,16.01345,0,0,0-11.52246,0,12.29731,12.29731,0,0,0-4.41406,3.06641,13.66373,13.66373,0,0,0-2.81934,4.88184,21.91643,21.91643,0,0,0,0,13.02051,13.68681,13.68681,0,0,0,2.81934,4.86816,12.14187,12.14187,0,0,0,4.41406,3.05176,16.19254,16.19254,0,0,0,11.52246,0,12.02139,12.02139,0,0,0,4.39941-3.05176,13.80846,13.80846,0,0,0,2.80566-4.86816A19.91894,19.91894,0,0,0,736.98783,559.49462Z"/>
    <path class="a" d="M765.28471,574.9497a11.00742,11.00742,0,0,0,4.37207-.82422,9.18425,9.18425,0,0,0,3.25879-2.31055,10.10383,10.10383,0,0,0,2.03516-3.54785,14.01006,14.01006,0,0,0,.70117-4.53711V539.77783h5.30762V563.73a17.98637,17.98637,0,0,1-1.08594,6.3252,14.70393,14.70393,0,0,1-3.10742,5.0459,14.21146,14.21146,0,0,1-4.93652,3.3418,18.30638,18.30638,0,0,1-13.08984,0,14.35044,14.35044,0,0,1-4.9502-3.3418,14.55884,14.55884,0,0,1-3.12109-5.0459,17.96449,17.96449,0,0,1-1.08691-6.3252V539.77783h5.30762v23.9248a14.03653,14.03653,0,0,0,.70117,4.53711,10.10383,10.10383,0,0,0,2.03516,3.54785,9.28718,9.28718,0,0,0,3.27246,2.32324A10.94153,10.94153,0,0,0,765.28471,574.9497Z"/>
    <path class="a" d="M822.45658,539.77783v39.40723h-2.667a2.295,2.295,0,0,1-1.05957-.21973,2.67479,2.67479,0,0,1-.83887-0.74316l-22.79687-29.69922q0.0542,0.687.082,1.34668,0.02783,0.66064.02734,1.23828v28.07715h-4.6748V539.77783h2.75a3.78527,3.78527,0,0,1,.60547.041,1.5264,1.5264,0,0,1,.43945.1377,1.70168,1.70168,0,0,1,.38574.27441,4.4176,4.4176,0,0,1,.41211.4541l22.79785,29.67285q-0.05566-.71484-0.09668-1.38867t-0.041-1.2793V539.77783h4.6748Z"/>
    <path class="a" d="M860.18607,571.04541a1.0207,1.0207,0,0,1,.77051.35742l2.11719,2.28223a16.85524,16.85524,0,0,1-5.87109,4.37207,20.07991,20.07991,0,0,1-8.34668,1.56836,19.49512,19.49512,0,0,1-7.69922-1.47168,16.92536,16.92536,0,0,1-5.91309-4.125,18.64325,18.64325,0,0,1-3.79492-6.36621,23.77721,23.77721,0,0,1-1.34766-8.168,22.94607,22.94607,0,0,1,1.40234-8.167,18.71153,18.71153,0,0,1,3.94629-6.37988,17.64567,17.64567,0,0,1,6.0918-4.13867,20.27437,20.27437,0,0,1,7.83691-1.47168,19.09448,19.09448,0,0,1,7.42578,1.34766,18.712,18.712,0,0,1,5.665,3.65723l-1.76074,2.44824a1.44192,1.44192,0,0,1-.42578.45313,1.22483,1.22483,0,0,1-.70117.17871,2.18119,2.18119,0,0,1-1.21-.53613,18.62771,18.62771,0,0,0-1.87012-1.19629,13.91058,13.91058,0,0,0-7.15039-1.73242,14.33219,14.33219,0,0,0-5.582,1.05859,12.19563,12.19563,0,0,0-4.35937,3.06641,14.14324,14.14324,0,0,0-2.8457,4.89551,19.51588,19.51588,0,0,0-1.01758,6.5166,19.01271,19.01271,0,0,0,1.05859,6.57324,14.506,14.506,0,0,0,2.8877,4.88086,12.19659,12.19659,0,0,0,4.31738,3.03906,13.751,13.751,0,0,0,5.376,1.04492,22.30733,22.30733,0,0,0,3.17676-.20605,13.02485,13.02485,0,0,0,2.6123-.64648,10.91912,10.91912,0,0,0,2.22754-1.11426,15.83679,15.83679,0,0,0,2.04883-1.6084A1.41875,1.41875,0,0,1,860.18607,571.04541Z"/>
    <path class="a" d="M874.59525,579.18505h-5.335V539.77783h5.335v39.40723Z"/>
    <path class="a" d="M907.0181,574.70263v4.48242H884.66068V539.77783h5.30762v34.9248h17.0498Z"/>
  </g>
</svg>
