<svg xmlns="http://www.w3.org/2000/svg" viewBox="0 0 1054.7398 467.70969">
  <defs>
    <style>
      .a {
        stroke: #231f20;
        stroke-miterlimit: 10;
        stroke-width: 4px;
      }
    </style>
  </defs>
  <title>BlackWhite</title>
  <g>
    <path d="M64.95613,296.69958h97.70081a50.73335,50.73335,0,0,0-97.70081,0"/>
    <path d="M183.0555,296.69958H280.7563a50.73335,50.73335,0,0,0-97.70081,0"/>
    <polygon points="296.359 135.61 296.359 29.92 29.579 29.92 29.579 296.7 49.353 296.7 49.353 251.667 49.353 248.207 49.353 233.348 296.359 233.348 296.359 228.352 114.716 228.352 114.716 192.741 296.359 192.741 296.359 187.744 49.353 187.744 49.353 135.61 296.359 135.61"/>
    <path d="M380.43349,116.15333H370.09322a5.09277,5.09277,0,0,1-4.6907-2.46663l-22.3672-30.78575a6.70035,6.70035,0,0,0-2.19423-2.07466,7.98472,7.98472,0,0,0-3.63834-.63067h-8.84013v35.9577H316.761V29.99068h24.34882a53.11675,53.11675,0,0,1,14.13154,1.65308,27.03155,27.03155,0,0,1,9.83282,4.78021,19.159,19.159,0,0,1,5.73919,7.5452,25.2209,25.2209,0,0,1,1.8658,9.88885,24.7541,24.7541,0,0,1-1.44411,8.53778,22.59086,22.59086,0,0,1-4.17949,7.12749,24.96292,24.96292,0,0,1-6.67573,5.38081,32.918,32.918,0,0,1-8.92975,3.3697,11.50475,11.50475,0,0,1,3.851,3.66442Zm-39.805-44.436a29.4513,29.4513,0,0,0,8.9334-1.23514,18.19366,18.19366,0,0,0,6.493-3.48517,14.41141,14.41141,0,0,0,3.93317-5.381,17.53119,17.53119,0,0,0,1.32476-6.91477q0-7.69644-5.05261-11.60137Q351.21125,39.187,341.10985,39.189H328.36263V71.71729h12.26585Z"/>
    <polygon points="445.252 106.652 445.192 116.153 392.099 116.153 392.099 29.99 445.192 29.99 445.192 39.487 403.764 39.487 403.764 68.112 437.315 68.112 437.315 77.251 403.764 77.251 403.764 106.652 445.252 106.652"/>
    <path d="M531.35579,29.98977v86.16287H525.527a5.02073,5.02073,0,0,1-2.32109-.48126,5.86638,5.86638,0,0,1-1.83221-1.62347l-49.843-64.93731q0.11752,1.50014.17913,2.94789c0.03724,0.95909.05967,1.86216,0.05967,2.70555v61.3886h-10.2208V29.98977h6.01159a7.89588,7.89588,0,0,1,1.32465.08974,3.36267,3.36267,0,0,1,.95909.29836,3.6065,3.6065,0,0,1,.84328.60083,10.00522,10.00522,0,0,1,.89931.99257l49.85055,64.87787c-0.08587-1.03744-.15294-2.04869-0.21273-3.034q-0.08951-1.47212-.08951-2.79483V29.98977h10.22092Z"/>
    <path d="M597.43873,43.45876a4.45438,4.45438,0,0,1-1.17182,1.35107,2.60033,2.60033,0,0,1-1.53737.45142,4.28206,4.28206,0,0,1-2.4032-1.02241q-1.38244-1.01877-3.45921-2.2539a27.87581,27.87581,0,0,0-4.98906-2.25778,21.54359,21.54359,0,0,0-7.06395-1.01854,20.60116,20.60116,0,0,0-6.88482,1.05225,14.72917,14.72917,0,0,0-4.99294,2.85473,11.75444,11.75444,0,0,0-3.03375,4.23905,13.42893,13.42893,0,0,0-1.02617,5.26146,9.71284,9.71284,0,0,0,1.77618,5.98187,15.22932,15.22932,0,0,0,4.6907,4.06,35.634,35.634,0,0,0,6.6123,2.91441q3.69995,1.23673,7.57527,2.55978,3.8846,1.31531,7.5788,2.97043a26.59882,26.59882,0,0,1,6.61242,4.183,19.02856,19.02856,0,0,1,4.6907,6.19459,20.5872,20.5872,0,0,1,1.77242,9.01539,29.06116,29.06116,0,0,1-1.92172,10.61266,24.39246,24.39246,0,0,1-5.62349,8.62752,26.19927,26.19927,0,0,1-9.079,5.77278,33.39288,33.39288,0,0,1-12.2359,2.10472,37.34264,37.34264,0,0,1-15.27353-3.03375,35.924,35.924,0,0,1-11.7247-8.20593l3.36594-5.53386a4.50632,4.50632,0,0,1,1.17546-1.11215,2.73566,2.73566,0,0,1,1.53373-.45142,3.3756,3.3756,0,0,1,1.77242.63431c0.6605,0.41794,1.41063.94793,2.25766,1.58976q1.25945,0.96274,2.88081,2.10449a24.18126,24.18126,0,0,0,3.698,2.10472,24.88921,24.88921,0,0,0,4.72042,1.5934,25.704,25.704,0,0,0,5.95567.63067,22.223,22.223,0,0,0,7.396-1.142,15.82228,15.82228,0,0,0,5.50038-3.21277,13.9979,13.9979,0,0,0,3.45921-4.96674,16.60154,16.60154,0,0,0,1.20166-6.42964A10.7883,10.7883,0,0,0,589.468,85.279a14.68022,14.68022,0,0,0-4.657-4.17938,32.44561,32.44561,0,0,0-6.61242-2.85838q-3.7336-1.17558-7.57891-2.40331a79.91093,79.91093,0,0,1-7.57515-2.85838,24.21474,24.21474,0,0,1-6.61242-4.20922,19.18313,19.18313,0,0,1-4.66075-6.46312,22.94958,22.94958,0,0,1-1.77629-9.59025,22.86277,22.86277,0,0,1,6.94449-16.41528,25.35809,25.35809,0,0,1,8.35887-5.29153A30.53861,30.53861,0,0,1,576.6909,29.025,36.17281,36.17281,0,0,1,589.83,31.3126a31.0131,31.0131,0,0,1,10.43353,6.61595Z"/>
    <path d="M662.67612,43.45876a4.40414,4.40414,0,0,1-1.17182,1.35107,2.58043,2.58043,0,0,1-1.53362.45142,4.272,4.272,0,0,1-2.4032-1.02241q-1.38808-1.01877-3.45921-2.2539a27.92439,27.92439,0,0,0-4.99282-2.25778,21.51225,21.51225,0,0,0-7.06395-1.01854,20.63176,20.63176,0,0,0-6.88482,1.05225,14.747,14.747,0,0,0-4.98918,2.85473A11.7632,11.7632,0,0,0,627.14,46.85465a13.427,13.427,0,0,0-1.02252,5.26146,9.68887,9.68887,0,0,0,1.77629,5.98187,15.18551,15.18551,0,0,0,4.69059,4.06,35.41833,35.41833,0,0,0,6.61242,2.91441q3.69431,1.23673,7.57515,2.55978,3.87914,1.31531,7.57891,2.97043a26.66772,26.66772,0,0,1,6.61242,4.183,19.07892,19.07892,0,0,1,4.69059,6.19459,20.641,20.641,0,0,1,1.76878,9.01539,29.13787,29.13787,0,0,1-1.918,10.61266,24.444,24.444,0,0,1-5.6236,8.62752,26.21422,26.21422,0,0,1-9.08269,5.77278,33.37251,33.37251,0,0,1-12.23226,2.10472,37.36046,37.36046,0,0,1-15.27717-3.03375,35.94766,35.94766,0,0,1-11.72094-8.20593l3.36594-5.53386a4.392,4.392,0,0,1,1.17546-1.11215,2.71483,2.71483,0,0,1,1.53-.45142,3.3756,3.3756,0,0,1,1.77242.63431c0.66426,0.41794,1.41427.94793,2.25766,1.58976q1.25945,0.96274,2.88457,2.10449a23.826,23.826,0,0,0,3.698,2.10472,24.79891,24.79891,0,0,0,4.72042,1.5934,25.6927,25.6927,0,0,0,5.95192.63067,22.20732,22.20732,0,0,0,7.396-1.142,15.8396,15.8396,0,0,0,5.50414-3.21277A14.03625,14.03625,0,0,0,655.28,98.11207a16.53509,16.53509,0,0,0,1.2053-6.42964,10.78908,10.78908,0,0,0-1.77618-6.40345,14.65541,14.65541,0,0,0-4.66075-4.17938,32.3549,32.3549,0,0,0-6.61242-2.85838q-3.728-1.17558-7.57891-2.40331a80.28786,80.28786,0,0,1-7.57515-2.85838,24.32547,24.32547,0,0,1-6.61242-4.20922,19.28593,19.28593,0,0,1-4.66075-6.46312,23.00737,23.00737,0,0,1-1.77629-9.59025,22.86277,22.86277,0,0,1,6.94449-16.41528,25.37526,25.37526,0,0,1,8.36252-5.29153A30.512,30.512,0,0,1,641.932,29.025a36.18611,36.18611,0,0,1,13.139,2.28761,31.01246,31.01246,0,0,1,10.43365,6.61595Z"/>
    <polygon points="736.995 106.652 736.935 116.153 683.842 116.153 683.842 29.99 736.935 29.99 736.935 39.487 695.507 39.487 695.507 68.112 729.058 68.112 729.058 77.251 695.507 77.251 695.507 106.652 736.995 106.652"/>
    <polygon points="802.174 106.353 802.174 116.152 753.29 116.152 753.29 29.99 764.895 29.99 764.895 106.353 802.174 106.353"/>
    <path d="M889.65972,116.1531h-9.01926a3.87333,3.87333,0,0,1-2.5263-.78349,4.78062,4.78062,0,0,1-1.444-1.9815l-8.05652-20.80762H829.954l-8.05652,20.80762a4.26087,4.26087,0,0,1-1.38819,1.92548,3.83933,3.83933,0,0,1-2.52243.83952h-9.01926l34.45381-86.16264h11.78448ZM865.36716,84.1657L851.84009,49.11106c-0.39949-1.04109-.82472-2.25755-1.2652-3.6421q-0.66039-2.071-1.2611-4.41807a65.20515,65.20515,0,0,1-2.5862,8.11984l-13.52707,34.995h32.16665Z"/>
    <polygon points="949.609 106.652 949.546 116.153 896.456 116.153 896.456 29.99 949.546 29.99 949.546 39.487 908.117 39.487 908.117 68.112 941.668 68.112 941.668 77.251 908.117 77.251 908.117 106.652 949.609 106.652"/>
    <path d="M1029.57944,116.15333h-10.34026a5.08869,5.08869,0,0,1-4.6907-2.46663L992.18117,82.90095a6.69816,6.69816,0,0,0-2.19423-2.07466,8.01205,8.01205,0,0,0-3.64187-.63067h-8.8366v35.9577H965.90323V29.99068h24.35246a53.107,53.107,0,0,1,14.1279,1.65308,26.97265,26.97265,0,0,1,9.83282,4.78021,19.13359,19.13359,0,0,1,5.74295,7.5452,25.22044,25.22044,0,0,1,1.86193,9.88885,24.75408,24.75408,0,0,1-1.444,8.53778,22.52207,22.52207,0,0,1-4.17938,7.12749,24.94733,24.94733,0,0,1-6.6722,5.38081,32.96244,32.96244,0,0,1-8.92975,3.3697,11.53743,11.53743,0,0,1,3.851,3.66442Zm-39.805-44.436a29.40794,29.40794,0,0,0,8.92952-1.23514,18.16275,18.16275,0,0,0,6.49318-3.48517,14.42327,14.42327,0,0,0,3.93682-5.381,17.53116,17.53116,0,0,0,1.32465-6.91477q0-7.69644-5.05261-11.60137-5.04874-3.91279-15.15031-3.91085H977.50847V71.71729h12.266Z"/>
    <path d="M380.97988,279.45924a44.99618,44.99618,0,0,0,17.88182-3.37334,37.51073,37.51073,0,0,0,13.3255-9.44836,41.33158,41.33158,0,0,0,8.32528-14.50848,57.35767,57.35767,0,0,0,2.86589-18.55736V135.61352h21.7067v97.95817a73.45869,73.45869,0,0,1-4.44438,25.86751,60.05953,60.05953,0,0,1-12.70611,20.63953,58.06652,58.06652,0,0,1-20.188,13.66509,74.88053,74.88053,0,0,1-53.53729,0,58.64776,58.64776,0,0,1-20.244-13.66509,59.581,59.581,0,0,1-12.76578-20.63953,73.54285,73.54285,0,0,1-4.44062-25.86751V135.61352h21.70681v97.84623a57.2876,57.2876,0,0,0,2.86954,18.55736,41.31672,41.31672,0,0,0,8.31776,14.50848A38.01248,38.01248,0,0,0,363.03827,276.03a44.75156,44.75156,0,0,0,17.94161,3.42926"/>
    <path d="M614.79933,135.61193V296.78H603.88808a9.35348,9.35348,0,0,1-4.32868-.89931,10.90077,10.90077,0,0,1-3.43313-3.03751L502.89216,171.3758q0.22394,2.81544.33959,5.51154c0.07083,1.80226.11194,3.489,0.11194,5.06012V296.78H484.223v-161.168h11.24333a15.94525,15.94525,0,0,1,2.47779.16809,6.39078,6.39078,0,0,1,1.79861.56348,6.87508,6.87508,0,0,1,1.57473,1.127,17.33667,17.33667,0,0,1,1.68667,1.85464l93.23411,121.35165q-0.22377-2.92186-.39175-5.67952-0.16792-2.75395-.168-5.228V135.61193h19.12083Z"/>
    <rect x="655.95962" y="135.61215" width="21.8224" height="161.16805"/>
    <path d="M867.852,216.25141a93.01427,93.01427,0,0,1-5.7393,33.23746,75.97368,75.97368,0,0,1-16.195,26.03173,72.29218,72.29218,0,0,1-25.13618,16.93025,90.36314,90.36314,0,0,1-64.83664,0,72.40894,72.40894,0,0,1-25.08-16.93025,76.09282,76.09282,0,0,1-16.19891-26.03173,99.1617,99.1617,0,0,1,0-66.47093,76.78257,76.78257,0,0,1,16.19891-26.0914,72.7821,72.7821,0,0,1,25.08-17.0423,89.585,89.585,0,0,1,64.83664,0,72.66178,72.66178,0,0,1,25.13618,17.0423,76.66154,76.66154,0,0,1,16.195,26.0914,93.02243,93.02243,0,0,1,5.7393,33.23347m-22.38212,0a81.95122,81.95122,0,0,0-4.04887-26.65465,56.40472,56.40472,0,0,0-11.47109-19.96035,49.83522,49.83522,0,0,0-17.99365-12.542,65.45379,65.45379,0,0,0-47.12655,0,50.30527,50.30527,0,0,0-18.04968,12.542,55.90145,55.90145,0,0,0-11.53065,19.96035,81.94823,81.94823,0,0,0-4.04876,26.65465,81.42694,81.42694,0,0,0,4.04876,26.599A55.99207,55.99207,0,0,0,746.78,262.75846a49.658,49.658,0,0,0,18.04968,12.48222,66.24387,66.24387,0,0,0,47.12655,0,49.19733,49.19733,0,0,0,17.99365-12.48222A56.49766,56.49766,0,0,0,841.421,242.85037a81.42989,81.42989,0,0,0,4.04887-26.599"/>
    <path d="M1029.57944,135.61193V296.78h-10.91126a9.354,9.354,0,0,1-4.32879-.89931,10.90051,10.90051,0,0,1-3.433-3.03751L917.67227,171.3758q0.22377,2.81544.33959,5.51154c0.07083,1.80226.11183,3.489,0.11183,5.06012V296.78H899.00309v-161.168h11.24333a15.94631,15.94631,0,0,1,2.47779.16809,6.392,6.392,0,0,1,1.79861.56348,6.87508,6.87508,0,0,1,1.57473,1.127,17.34885,17.34885,0,0,1,1.68656,1.85464l93.23411,121.35165q-0.22377-2.92186-.39175-5.67952-0.16775-2.75395-.16786-5.228V135.61193h19.12083Z"/>
  </g>
  <line class="a" x1="30.35539" y1="334.79536" x2="1030.35619" y2="334.79536"/>
  <g>
    <path d="M104.30383,389.099a2.58484,2.58484,0,0,1-.68164.78906,1.50426,1.50426,0,0,1-.89258.26172,2.484,2.484,0,0,1-1.40039-.5957q-0.80566-.59473-2.0127-1.3125a16.44971,16.44971,0,0,0-2.9043-1.3125,12.51511,12.51511,0,0,0-4.11328-.59375,12.05243,12.05243,0,0,0-4.00684.61133,8.5914,8.5914,0,0,0-2.90527,1.66406,6.80428,6.80428,0,0,0-1.76758,2.4668,7.82192,7.82192,0,0,0-.59473,3.0625,5.65788,5.65788,0,0,0,1.03223,3.48242,8.88664,8.88664,0,0,0,2.73047,2.36328,20.94829,20.94829,0,0,0,3.84961,1.69727q2.15186,0.71777,4.41016,1.48633,2.25732,0.77051,4.41016,1.73242a15.53612,15.53612,0,0,1,3.84961,2.43359,11.10547,11.10547,0,0,1,2.73047,3.60547,12.0012,12.0012,0,0,1,1.03223,5.25,16.93027,16.93027,0,0,1-1.12012,6.17578,14.254,14.254,0,0,1-3.27246,5.02344,15.30662,15.30662,0,0,1-5.28516,3.35938,19.44765,19.44765,0,0,1-7.12207,1.22461,21.72475,21.72475,0,0,1-8.89062-1.76562,20.87282,20.87282,0,0,1-6.8252-4.7793l1.96-3.21875a2.56959,2.56959,0,0,1,.68262-0.64844,1.60775,1.60775,0,0,1,.89258-0.26172,1.99388,1.99388,0,0,1,1.0332.36719c0.38477,0.24414.82227,0.55469,1.3125,0.92773q0.73389,0.55957,1.67969,1.22461a13.863,13.863,0,0,0,2.15234,1.22461,14.38724,14.38724,0,0,0,2.74707.92773,14.91246,14.91246,0,0,0,3.46582.36719,12.92994,12.92994,0,0,0,4.30469-.66406,9.14985,9.14985,0,0,0,3.20215-1.873,8.11663,8.11663,0,0,0,2.0127-2.88672,9.655,9.655,0,0,0,.7002-3.74609,6.2901,6.2901,0,0,0-1.03223-3.72656,8.57025,8.57025,0,0,0-2.71289-2.43359,18.91007,18.91007,0,0,0-3.84961-1.66211q-2.1709-.68262-4.41016-1.40039a45.9441,45.9441,0,0,1-4.41016-1.66211,14.17954,14.17954,0,0,1-3.84961-2.44922,11.24742,11.24742,0,0,1-2.71289-3.76367,14.428,14.428,0,0,1,0-10.72656,13.12972,13.12972,0,0,1,3.00977-4.41016,14.702,14.702,0,0,1,4.86523-3.08008,17.76579,17.76579,0,0,1,6.63281-1.1543,21.09063,21.09063,0,0,1,7.64746,1.33008,18.07182,18.07182,0,0,1,6.07227,3.84961Z"/>
    <path d="M134.43957,411.429v19.98633h-6.79V411.429l-18.375-30.16992h5.94922a2.17677,2.17677,0,0,1,1.43555.4375,3.94111,3.94111,0,0,1,.91016,1.13867l11.47949,19.49414q0.62988,1.22754,1.15527,2.293a20.4107,20.4107,0,0,1,.91016,2.15234q0.38379-1.084.875-2.15234,0.48926-1.06641,1.085-2.293l11.44531-19.49414a3.82848,3.82848,0,0,1,.875-1.08594,2.09771,2.09771,0,0,1,1.43457-.49023h5.98535Z"/>
    <path d="M183.40442,389.099a2.58484,2.58484,0,0,1-.68164.78906,1.50426,1.50426,0,0,1-.89258.26172,2.484,2.484,0,0,1-1.40039-.5957q-0.80566-.59473-2.0127-1.3125a16.44971,16.44971,0,0,0-2.9043-1.3125,12.51511,12.51511,0,0,0-4.11328-.59375,12.05243,12.05243,0,0,0-4.00684.61133,8.5914,8.5914,0,0,0-2.90527,1.66406,6.80428,6.80428,0,0,0-1.76758,2.4668,7.82192,7.82192,0,0,0-.59473,3.0625,5.65788,5.65788,0,0,0,1.03223,3.48242,8.88664,8.88664,0,0,0,2.73047,2.36328,20.94829,20.94829,0,0,0,3.84961,1.69727q2.15186,0.71777,4.41016,1.48633,2.25732,0.77051,4.41016,1.73242a15.53611,15.53611,0,0,1,3.84961,2.43359,11.10547,11.10547,0,0,1,2.73047,3.60547,12.0012,12.0012,0,0,1,1.03223,5.25,16.93027,16.93027,0,0,1-1.12012,6.17578,14.254,14.254,0,0,1-3.27246,5.02344,15.30662,15.30662,0,0,1-5.28516,3.35938,19.44765,19.44765,0,0,1-7.12207,1.22461,21.72475,21.72475,0,0,1-8.89062-1.76562,20.87282,20.87282,0,0,1-6.8252-4.7793l1.96-3.21875a2.56959,2.56959,0,0,1,.68262-0.64844,1.60775,1.60775,0,0,1,.89258-0.26172,1.99388,1.99388,0,0,1,1.0332.36719c0.38477,0.24414.82227,0.55469,1.3125,0.92773q0.73389,0.55957,1.67969,1.22461a13.863,13.863,0,0,0,2.15234,1.22461,14.38724,14.38724,0,0,0,2.74707.92773,14.91246,14.91246,0,0,0,3.46582.36719,12.92994,12.92994,0,0,0,4.30469-.66406,9.14985,9.14985,0,0,0,3.20215-1.873,8.11663,8.11663,0,0,0,2.0127-2.88672,9.655,9.655,0,0,0,.7002-3.74609,6.2901,6.2901,0,0,0-1.03223-3.72656,8.57025,8.57025,0,0,0-2.71289-2.43359,18.91008,18.91008,0,0,0-3.84961-1.66211q-2.1709-.68262-4.41016-1.40039a45.94409,45.94409,0,0,1-4.41016-1.66211,14.17954,14.17954,0,0,1-3.84961-2.44922,11.24742,11.24742,0,0,1-2.71289-3.76367,14.428,14.428,0,0,1,0-10.72656,13.12972,13.12972,0,0,1,3.00977-4.41016,14.702,14.702,0,0,1,4.86523-3.08008,17.76579,17.76579,0,0,1,6.63281-1.1543,21.09063,21.09063,0,0,1,7.64746,1.33008,18.07182,18.07182,0,0,1,6.07227,3.84961Z"/>
    <path d="M229.63977,386.9642H213.39953v44.45117h-6.75488V386.9642H190.36926v-5.70508h39.27051v5.70508Z"/>
    <path d="M267.99914,425.88412l-0.03516,5.53125h-30.9043V381.25912H267.964v5.53125H243.84973v16.66016H263.379v5.32031h-19.5293v17.11328h24.14941Z"/>
    <path d="M329.66907,381.25912v50.15625h-5.9502V394.5599q0-.73535.05273-1.57422,0.05273-.84082.123-1.71484l-17.2207,31.35938a2.607,2.607,0,0,1-2.4502,1.57422h-0.97949a2.607,2.607,0,0,1-2.4502-1.57422l-17.57031-31.5a30.48655,30.48655,0,0,1,.21094,3.42969v36.85547h-5.9502V381.25912h5.00488a4.32875,4.32875,0,0,1,1.39941.17578,2.01625,2.01625,0,0,1,.94531.98047l17.3252,30.86914q0.42041,0.84082.82227,1.75,0.40283,0.91113.75293,1.85547,0.34863-.94629.73438-1.873a19.16806,19.16806,0,0,1,.84082-1.76758l17.00977-30.834a1.85544,1.85544,0,0,1,.92773-0.98047,4.49512,4.49512,0,0,1,1.417-.17578h5.00488Z"/>
    <path d="M368.13391,389.099a2.58484,2.58484,0,0,1-.68164.78906,1.50426,1.50426,0,0,1-.89258.26172,2.484,2.484,0,0,1-1.40039-.5957q-0.80566-.59473-2.0127-1.3125a16.44971,16.44971,0,0,0-2.9043-1.3125,12.51511,12.51511,0,0,0-4.11328-.59375,12.05243,12.05243,0,0,0-4.00684.61133,8.5914,8.5914,0,0,0-2.90527,1.66406,6.80428,6.80428,0,0,0-1.76758,2.4668,7.82192,7.82192,0,0,0-.59473,3.0625,5.65788,5.65788,0,0,0,1.03223,3.48242,8.88664,8.88664,0,0,0,2.73047,2.36328,20.94829,20.94829,0,0,0,3.84961,1.69727q2.15186,0.71777,4.41016,1.48633,2.25732,0.77051,4.41016,1.73242a15.53612,15.53612,0,0,1,3.84961,2.43359,11.10547,11.10547,0,0,1,2.73047,3.60547,12.0012,12.0012,0,0,1,1.03223,5.25,16.93027,16.93027,0,0,1-1.12012,6.17578A14.254,14.254,0,0,1,366.507,427.39a15.30662,15.30662,0,0,1-5.28516,3.35938,19.44765,19.44765,0,0,1-7.12207,1.22461,21.72475,21.72475,0,0,1-8.89062-1.76562,20.87282,20.87282,0,0,1-6.8252-4.7793l1.96-3.21875a2.56959,2.56959,0,0,1,.68262-0.64844,1.60775,1.60775,0,0,1,.89258-0.26172,1.99388,1.99388,0,0,1,1.0332.36719c0.38477,0.24414.82227,0.55469,1.3125,0.92773q0.73389,0.55957,1.67969,1.22461a13.863,13.863,0,0,0,2.15234,1.22461,14.38725,14.38725,0,0,0,2.74707.92773,14.91246,14.91246,0,0,0,3.46582.36719,12.93,12.93,0,0,0,4.30469-.66406,9.14985,9.14985,0,0,0,3.20215-1.873,8.11663,8.11663,0,0,0,2.0127-2.88672,9.655,9.655,0,0,0,.7002-3.74609,6.2901,6.2901,0,0,0-1.03223-3.72656,8.57025,8.57025,0,0,0-2.71289-2.43359,18.91007,18.91007,0,0,0-3.84961-1.66211q-2.1709-.68262-4.41016-1.40039a45.94409,45.94409,0,0,1-4.41016-1.66211,14.17953,14.17953,0,0,1-3.84961-2.44922,11.24742,11.24742,0,0,1-2.71289-3.76367,14.428,14.428,0,0,1,0-10.72656,13.12972,13.12972,0,0,1,3.00977-4.41016,14.702,14.702,0,0,1,4.86523-3.08008,17.76579,17.76579,0,0,1,6.63281-1.1543,21.09063,21.09063,0,0,1,7.64746,1.33008,18.07182,18.07182,0,0,1,6.07227,3.84961Z"/>
    <path d="M436.80383,431.41537h-5.25a2.26112,2.26112,0,0,1-1.46973-.45508,2.78581,2.78581,0,0,1-.83984-1.15625l-4.69043-12.10937H402.04895L397.35949,429.804a2.466,2.466,0,0,1-.80566,1.12109,2.23823,2.23823,0,0,1-1.46973.49023h-5.25l20.05469-50.15625h6.86035Zm-14.13965-18.62109-7.875-20.4043q-0.3501-.91113-0.73535-2.11719-0.38525-1.207-.73437-2.57227a38.33905,38.33905,0,0,1-1.50488,4.72461l-7.875,20.36914h18.72461Z"/>
    <path d="M486.88782,406.35483a28.23478,28.23478,0,0,1-1.78516,10.25586,22.73631,22.73631,0,0,1-5.04,7.91016,22.42561,22.42561,0,0,1-7.82227,5.0918,27.29448,27.29448,0,0,1-10.09766,1.80273H443.41809V381.25912H462.1427a27.29448,27.29448,0,0,1,10.09766,1.80273,22.33476,22.33476,0,0,1,7.82227,5.11133,22.93,22.93,0,0,1,5.04,7.92578A28.24225,28.24225,0,0,1,486.88782,406.35483Zm-6.96484,0a25.18013,25.18013,0,0,0-1.25977-8.25977,17.42651,17.42651,0,0,0-3.57031-6.16016,15.23593,15.23593,0,0,0-5.59961-3.84961,19.45571,19.45571,0,0,0-7.35059-1.33008H450.20813v39.16406H462.1427a19.41776,19.41776,0,0,0,7.35059-1.33008,15.3358,15.3358,0,0,0,5.59961-3.832,17.22711,17.22711,0,0,0,3.57031-6.14258A25.17186,25.17186,0,0,0,479.923,406.35483Z"/>
    <path d="M548.838,381.25912v50.15625h-5.9502V394.5599q0-.73535.05273-1.57422,0.05273-.84082.123-1.71484l-17.2207,31.35938a2.607,2.607,0,0,1-2.4502,1.57422h-0.97949a2.607,2.607,0,0,1-2.4502-1.57422l-17.57031-31.5a30.48655,30.48655,0,0,1,.21094,3.42969v36.85547h-5.9502V381.25912h5.00488a4.32875,4.32875,0,0,1,1.39941.17578,2.01625,2.01625,0,0,1,.94531.98047l17.3252,30.86914q0.42041,0.84082.82227,1.75,0.40283,0.91113.75293,1.85547,0.34863-.94629.73438-1.873a19.16806,19.16806,0,0,1,.84082-1.76758l17.00977-30.834a1.85544,1.85544,0,0,1,.92773-0.98047,4.49512,4.49512,0,0,1,1.417-.17578H548.838Z"/>
    <path d="M568.43762,431.41537h-6.79V381.25912h6.79v50.15625Z"/>
    <path d="M621.88293,381.25912v50.15625h-3.39551a2.90358,2.90358,0,0,1-1.34668-.28125,3.36962,3.36962,0,0,1-1.06738-.94336L587.05774,392.39c0.04688,0.584.082,1.1543,0.10547,1.71484,0.02246,0.56055.03516,1.08594,0.03516,1.57422v35.73633h-5.9502V381.25912h3.5a4.7595,4.7595,0,0,1,.76953.05273,1.97591,1.97591,0,0,1,.56055.17578,2.17229,2.17229,0,0,1,.48926.34961,5.4597,5.4597,0,0,1,.52539.57813L616.10754,420.179q-0.07031-.9082-0.12207-1.76758-0.05273-.85547-0.05273-1.627V381.25912h5.9502Z"/>
    <path d="M641.48254,431.41537h-6.79V381.25912h6.79v50.15625Z"/>
    <path d="M679.94641,389.099a2.58484,2.58484,0,0,1-.68164.78906,1.50426,1.50426,0,0,1-.89258.26172,2.484,2.484,0,0,1-1.40039-.5957q-0.80566-.59473-2.0127-1.3125a16.44971,16.44971,0,0,0-2.9043-1.3125,12.51511,12.51511,0,0,0-4.11328-.59375,12.05243,12.05243,0,0,0-4.00684.61133,8.5914,8.5914,0,0,0-2.90527,1.66406,6.80428,6.80428,0,0,0-1.76758,2.4668,7.82192,7.82192,0,0,0-.59473,3.0625,5.65788,5.65788,0,0,0,1.03223,3.48242,8.88664,8.88664,0,0,0,2.73047,2.36328,20.94829,20.94829,0,0,0,3.84961,1.69727q2.15186,0.71777,4.41016,1.48633,2.25732,0.77051,4.41016,1.73242a15.53612,15.53612,0,0,1,3.84961,2.43359,11.10547,11.10547,0,0,1,2.73047,3.60547,12.0012,12.0012,0,0,1,1.03223,5.25,16.93027,16.93027,0,0,1-1.12012,6.17578,14.254,14.254,0,0,1-3.27246,5.02344,15.30662,15.30662,0,0,1-5.28516,3.35938,19.44765,19.44765,0,0,1-7.12207,1.22461,21.72475,21.72475,0,0,1-8.89062-1.76562,20.87282,20.87282,0,0,1-6.8252-4.7793l1.96-3.21875a2.56959,2.56959,0,0,1,.68262-0.64844,1.60775,1.60775,0,0,1,.89258-0.26172,1.99388,1.99388,0,0,1,1.0332.36719c0.38477,0.24414.82227,0.55469,1.3125,0.92773q0.73389,0.55957,1.67969,1.22461a13.863,13.863,0,0,0,2.15234,1.22461,14.38725,14.38725,0,0,0,2.74707.92773,14.91246,14.91246,0,0,0,3.46582.36719,12.93,12.93,0,0,0,4.30469-.66406,9.14985,9.14985,0,0,0,3.20215-1.873,8.11663,8.11663,0,0,0,2.0127-2.88672,9.655,9.655,0,0,0,.7002-3.74609,6.2901,6.2901,0,0,0-1.03223-3.72656,8.57025,8.57025,0,0,0-2.71289-2.43359,18.91007,18.91007,0,0,0-3.84961-1.66211q-2.1709-.68262-4.41016-1.40039a45.94409,45.94409,0,0,1-4.41016-1.66211,14.17953,14.17953,0,0,1-3.84961-2.44922,11.24742,11.24742,0,0,1-2.71289-3.76367,14.428,14.428,0,0,1,0-10.72656,13.12972,13.12972,0,0,1,3.00977-4.41016,14.702,14.702,0,0,1,4.86523-3.08008,17.76579,17.76579,0,0,1,6.63281-1.1543,21.09063,21.09063,0,0,1,7.64746,1.33008,18.07182,18.07182,0,0,1,6.07227,3.84961Z"/>
    <path d="M726.18176,386.9642H709.94153v44.45117h-6.75488V386.9642H686.91125v-5.70508h39.27051v5.70508Z"/>
    <path d="M770.66614,431.41537H764.6466a2.968,2.968,0,0,1-2.73047-1.43555L748.8966,412.0599a3.84912,3.84912,0,0,0-1.27734-1.207,4.64119,4.64119,0,0,0-2.11816-.36719h-5.14453v20.92969h-6.75488V381.25912h14.1748a31.01146,31.01146,0,0,1,8.22461.96289,15.715,15.715,0,0,1,5.72266,2.7832,11.14423,11.14423,0,0,1,3.34277,4.39258,14.69406,14.69406,0,0,1,1.085,5.75781,14.43207,14.43207,0,0,1-.83984,4.96875,13.12842,13.12842,0,0,1-2.43262,4.14844,14.58846,14.58846,0,0,1-3.88477,3.13281,19.25325,19.25325,0,0,1-5.19824,1.959,6.72522,6.72522,0,0,1,2.24023,2.13477Zm-23.16992-25.86523a17.16047,17.16047,0,0,0,5.19727-.7168,10.64225,10.64225,0,0,0,3.78027-2.03125,8.40714,8.40714,0,0,0,2.293-3.13281,10.23517,10.23517,0,0,0,.76953-4.02344A8.0144,8.0144,0,0,0,756.5968,388.89q-2.93994-2.27344-8.82031-2.27539h-7.41992v18.93555h7.13965Z"/>
    <path d="M818.23059,431.41537h-5.25a2.26112,2.26112,0,0,1-1.46973-.45508,2.78581,2.78581,0,0,1-.83984-1.15625l-4.69043-12.10937H783.47571L778.78625,429.804a2.466,2.466,0,0,1-.80566,1.12109,2.23823,2.23823,0,0,1-1.46973.49023h-5.25l20.05469-50.15625h6.86035Zm-14.13965-18.62109-7.875-20.4043q-0.3501-.91113-0.73535-2.11719-0.38525-1.207-.73437-2.57227a38.33905,38.33905,0,0,1-1.50488,4.72461l-7.875,20.36914h18.72461Z"/>
    <path d="M853.82629,386.9642H837.58606v44.45117h-6.75488V386.9642H814.55578v-5.70508h39.27051v5.70508Z"/>
    <path d="M905.34582,406.35483a28.92625,28.92625,0,0,1-1.78516,10.3418,23.6971,23.6971,0,0,1-5.04,8.10352,22.51615,22.51615,0,0,1-7.82227,5.26758,28.10754,28.10754,0,0,1-20.17773,0,22.55372,22.55372,0,0,1-7.80469-5.26758,23.68226,23.68226,0,0,1-5.04-8.10352,30.84871,30.84871,0,0,1,0-20.68359,23.87182,23.87182,0,0,1,5.04-8.12109,22.63989,22.63989,0,0,1,7.80469-5.30273,27.89056,27.89056,0,0,1,20.17773,0,22.60136,22.60136,0,0,1,7.82227,5.30273,23.88687,23.88687,0,0,1,5.04,8.12109A28.94149,28.94149,0,0,1,905.34582,406.35483Zm-6.96484,0a25.46259,25.46259,0,0,0-1.26074-8.29492,17.56449,17.56449,0,0,0-3.56934-6.21289,15.49858,15.49858,0,0,0-5.60059-3.90234,20.37358,20.37358,0,0,0-14.665,0,15.66264,15.66264,0,0,0-5.61719,3.90234,17.42087,17.42087,0,0,0-3.58691,6.21289,27.86033,27.86033,0,0,0,0,16.57227,17.40942,17.40942,0,0,0,3.58691,6.19531,15.4757,15.4757,0,0,0,5.61719,3.88477,20.62163,20.62163,0,0,0,14.665,0,15.31483,15.31483,0,0,0,5.60059-3.88477,17.55307,17.55307,0,0,0,3.56934-6.19531A25.3037,25.3037,0,0,0,898.381,406.35483Z"/>
    <path d="M952.10461,431.41537h-6.01953a2.968,2.968,0,0,1-2.73047-1.43555L930.33508,412.0599a3.84912,3.84912,0,0,0-1.27734-1.207,4.64119,4.64119,0,0,0-2.11816-.36719H921.795v20.92969h-6.75488V381.25912H929.215a31.01146,31.01146,0,0,1,8.22461.96289,15.715,15.715,0,0,1,5.72266,2.7832,11.14423,11.14423,0,0,1,3.34277,4.39258,14.69406,14.69406,0,0,1,1.085,5.75781,14.43207,14.43207,0,0,1-.83984,4.96875,13.12842,13.12842,0,0,1-2.43262,4.14844,14.58846,14.58846,0,0,1-3.88477,3.13281,19.25325,19.25325,0,0,1-5.19824,1.959,6.72522,6.72522,0,0,1,2.24023,2.13477Zm-23.16992-25.86523a17.16047,17.16047,0,0,0,5.19727-.7168,10.64225,10.64225,0,0,0,3.78027-2.03125,8.40714,8.40714,0,0,0,2.293-3.13281,10.23517,10.23517,0,0,0,.76953-4.02344,8.0144,8.0144,0,0,0-2.93945-6.75586q-2.93994-2.27344-8.82031-2.27539H921.795v18.93555h7.13965Z"/>
    <path d="M984.54895,389.099a2.58484,2.58484,0,0,1-.68164.78906,1.50426,1.50426,0,0,1-.89258.26172,2.484,2.484,0,0,1-1.40039-.5957q-0.80566-.59473-2.0127-1.3125a16.44971,16.44971,0,0,0-2.9043-1.3125,12.51511,12.51511,0,0,0-4.11328-.59375,12.05243,12.05243,0,0,0-4.00684.61133,8.5914,8.5914,0,0,0-2.90527,1.66406,6.80428,6.80428,0,0,0-1.76758,2.4668,7.82192,7.82192,0,0,0-.59473,3.0625,5.65788,5.65788,0,0,0,1.03223,3.48242,8.88664,8.88664,0,0,0,2.73047,2.36328A20.94829,20.94829,0,0,0,970.882,401.683q2.15186,0.71777,4.41016,1.48633,2.25732,0.77051,4.41016,1.73242a15.53612,15.53612,0,0,1,3.84961,2.43359,11.10547,11.10547,0,0,1,2.73047,3.60547,12.0012,12.0012,0,0,1,1.03223,5.25,16.93028,16.93028,0,0,1-1.12012,6.17578A14.254,14.254,0,0,1,982.922,427.39a15.30662,15.30662,0,0,1-5.28516,3.35938,19.44765,19.44765,0,0,1-7.12207,1.22461,21.72475,21.72475,0,0,1-8.89062-1.76562,20.87282,20.87282,0,0,1-6.8252-4.7793l1.96-3.21875a2.56959,2.56959,0,0,1,.68262-0.64844,1.60775,1.60775,0,0,1,.89258-0.26172,1.99388,1.99388,0,0,1,1.0332.36719c0.38477,0.24414.82227,0.55469,1.3125,0.92773q0.73389,0.55957,1.67969,1.22461a13.863,13.863,0,0,0,2.15234,1.22461,14.38724,14.38724,0,0,0,2.74707.92773,14.91246,14.91246,0,0,0,3.46582.36719,12.92994,12.92994,0,0,0,4.30469-.66406,9.14985,9.14985,0,0,0,3.20215-1.873,8.11663,8.11663,0,0,0,2.0127-2.88672,9.655,9.655,0,0,0,.7002-3.74609,6.2901,6.2901,0,0,0-1.03223-3.72656,8.57025,8.57025,0,0,0-2.71289-2.43359,18.91007,18.91007,0,0,0-3.84961-1.66211q-2.1709-.68262-4.41016-1.40039a45.94411,45.94411,0,0,1-4.41016-1.66211,14.17953,14.17953,0,0,1-3.84961-2.44922,11.24742,11.24742,0,0,1-2.71289-3.76367,14.428,14.428,0,0,1,0-10.72656,13.12972,13.12972,0,0,1,3.00977-4.41016,14.702,14.702,0,0,1,4.86523-3.08008,17.76579,17.76579,0,0,1,6.63281-1.1543,21.09063,21.09063,0,0,1,7.64746,1.33008,18.07182,18.07182,0,0,1,6.07227,3.84961Z"/>
  </g>
</svg>
