<svg xmlns="http://www.w3.org/2000/svg" viewBox="0 0 1054.7398 467.70969">
  <defs>
    <style>
      .a, .b {
        fill: #fff;
      }

      .b {
        stroke: #fff;
        stroke-miterlimit: 10;
        stroke-width: 4px;
      }
    </style>
  </defs>
  <title>WHITE</title>
  <g>
    <path class="a" d="M64.95613,296.69958h97.70081a50.73335,50.73335,0,0,0-97.70081,0"/>
    <path class="a" d="M183.0555,296.69958H280.7563a50.73335,50.73335,0,0,0-97.70081,0"/>
    <polygon class="a" points="296.359 135.61 296.359 29.92 29.579 29.92 29.579 296.7 49.353 296.7 49.353 251.667 49.353 248.207 49.353 233.348 296.359 233.348 296.359 228.352 114.716 228.352 114.716 192.741 296.359 192.741 296.359 187.744 49.353 187.744 49.353 135.61 296.359 135.61"/>
    <path class="a" d="M380.43349,116.15333H370.09322a5.09277,5.09277,0,0,1-4.6907-2.46663l-22.3672-30.78575a6.70035,6.70035,0,0,0-2.19423-2.07466,7.98472,7.98472,0,0,0-3.63834-.63067h-8.84013v35.9577H316.761V29.99068h24.34882a53.11675,53.11675,0,0,1,14.13154,1.65308,27.03155,27.03155,0,0,1,9.83282,4.78021,19.159,19.159,0,0,1,5.73919,7.5452,25.2209,25.2209,0,0,1,1.8658,9.88885,24.7541,24.7541,0,0,1-1.44411,8.53778,22.59086,22.59086,0,0,1-4.17949,7.12749,24.96292,24.96292,0,0,1-6.67573,5.38081,32.918,32.918,0,0,1-8.92975,3.3697,11.50475,11.50475,0,0,1,3.851,3.66442Zm-39.805-44.436a29.4513,29.4513,0,0,0,8.9334-1.23514,18.19366,18.19366,0,0,0,6.493-3.48517,14.41141,14.41141,0,0,0,3.93317-5.381,17.53119,17.53119,0,0,0,1.32476-6.91477q0-7.69644-5.05261-11.60137Q351.21125,39.187,341.10985,39.189H328.36263V71.71729h12.26585Z"/>
    <polygon class="a" points="445.252 106.652 445.192 116.153 392.099 116.153 392.099 29.99 445.192 29.99 445.192 39.487 403.764 39.487 403.764 68.112 437.315 68.112 437.315 77.251 403.764 77.251 403.764 106.652 445.252 106.652"/>
    <path class="a" d="M531.35579,29.98977v86.16287H525.527a5.02073,5.02073,0,0,1-2.32109-.48126,5.86638,5.86638,0,0,1-1.83221-1.62347l-49.843-64.93731q0.11752,1.50014.17913,2.94789c0.03724,0.95909.05967,1.86216,0.05967,2.70555v61.3886h-10.2208V29.98977h6.01159a7.89588,7.89588,0,0,1,1.32465.08974,3.36267,3.36267,0,0,1,.95909.29836,3.6065,3.6065,0,0,1,.84328.60083,10.00522,10.00522,0,0,1,.89931.99257l49.85055,64.87787c-0.08587-1.03744-.15294-2.04869-0.21273-3.034q-0.08951-1.47212-.08951-2.79483V29.98977h10.22092Z"/>
    <path class="a" d="M597.43873,43.45876a4.45438,4.45438,0,0,1-1.17182,1.35107,2.60033,2.60033,0,0,1-1.53737.45142,4.28206,4.28206,0,0,1-2.4032-1.02241q-1.38244-1.01877-3.45921-2.2539a27.87581,27.87581,0,0,0-4.98906-2.25778,21.54359,21.54359,0,0,0-7.06395-1.01854,20.60116,20.60116,0,0,0-6.88482,1.05225,14.72917,14.72917,0,0,0-4.99294,2.85473,11.75444,11.75444,0,0,0-3.03375,4.23905,13.42893,13.42893,0,0,0-1.02617,5.26146,9.71284,9.71284,0,0,0,1.77618,5.98187,15.22932,15.22932,0,0,0,4.6907,4.06,35.634,35.634,0,0,0,6.6123,2.91441q3.69995,1.23673,7.57527,2.55978,3.8846,1.31531,7.5788,2.97043a26.59882,26.59882,0,0,1,6.61242,4.183,19.02856,19.02856,0,0,1,4.6907,6.19459,20.5872,20.5872,0,0,1,1.77242,9.01539,29.06116,29.06116,0,0,1-1.92172,10.61266,24.39246,24.39246,0,0,1-5.62349,8.62752,26.19927,26.19927,0,0,1-9.079,5.77278,33.39288,33.39288,0,0,1-12.2359,2.10472,37.34264,37.34264,0,0,1-15.27353-3.03375,35.924,35.924,0,0,1-11.7247-8.20593l3.36594-5.53386a4.50632,4.50632,0,0,1,1.17546-1.11215,2.73566,2.73566,0,0,1,1.53373-.45142,3.3756,3.3756,0,0,1,1.77242.63431c0.6605,0.41794,1.41063.94793,2.25766,1.58976q1.25945,0.96274,2.88081,2.10449a24.18126,24.18126,0,0,0,3.698,2.10472,24.88921,24.88921,0,0,0,4.72042,1.5934,25.704,25.704,0,0,0,5.95567.63067,22.223,22.223,0,0,0,7.396-1.142,15.82228,15.82228,0,0,0,5.50038-3.21277,13.9979,13.9979,0,0,0,3.45921-4.96674,16.60154,16.60154,0,0,0,1.20166-6.42964A10.7883,10.7883,0,0,0,589.468,85.279a14.68022,14.68022,0,0,0-4.657-4.17938,32.44561,32.44561,0,0,0-6.61242-2.85838q-3.7336-1.17558-7.57891-2.40331a79.91093,79.91093,0,0,1-7.57515-2.85838,24.21474,24.21474,0,0,1-6.61242-4.20922,19.18313,19.18313,0,0,1-4.66075-6.46312,22.94958,22.94958,0,0,1-1.77629-9.59025,22.86277,22.86277,0,0,1,6.94449-16.41528,25.35809,25.35809,0,0,1,8.35887-5.29153A30.53861,30.53861,0,0,1,576.6909,29.025,36.17281,36.17281,0,0,1,589.83,31.3126a31.0131,31.0131,0,0,1,10.43353,6.61595Z"/>
    <path class="a" d="M662.67612,43.45876a4.40414,4.40414,0,0,1-1.17182,1.35107,2.58043,2.58043,0,0,1-1.53362.45142,4.272,4.272,0,0,1-2.4032-1.02241q-1.38808-1.01877-3.45921-2.2539a27.92439,27.92439,0,0,0-4.99282-2.25778,21.51225,21.51225,0,0,0-7.06395-1.01854,20.63176,20.63176,0,0,0-6.88482,1.05225,14.747,14.747,0,0,0-4.98918,2.85473A11.7632,11.7632,0,0,0,627.14,46.85465a13.427,13.427,0,0,0-1.02252,5.26146,9.68887,9.68887,0,0,0,1.77629,5.98187,15.18551,15.18551,0,0,0,4.69059,4.06,35.41833,35.41833,0,0,0,6.61242,2.91441q3.69431,1.23673,7.57515,2.55978,3.87914,1.31531,7.57891,2.97043a26.66772,26.66772,0,0,1,6.61242,4.183,19.07892,19.07892,0,0,1,4.69059,6.19459,20.641,20.641,0,0,1,1.76878,9.01539,29.13787,29.13787,0,0,1-1.918,10.61266,24.444,24.444,0,0,1-5.6236,8.62752,26.21422,26.21422,0,0,1-9.08269,5.77278,33.37251,33.37251,0,0,1-12.23226,2.10472,37.36046,37.36046,0,0,1-15.27717-3.03375,35.94766,35.94766,0,0,1-11.72094-8.20593l3.36594-5.53386a4.392,4.392,0,0,1,1.17546-1.11215,2.71483,2.71483,0,0,1,1.53-.45142,3.3756,3.3756,0,0,1,1.77242.63431c0.66426,0.41794,1.41427.94793,2.25766,1.58976q1.25945,0.96274,2.88457,2.10449a23.826,23.826,0,0,0,3.698,2.10472,24.79891,24.79891,0,0,0,4.72042,1.5934,25.6927,25.6927,0,0,0,5.95192.63067,22.20732,22.20732,0,0,0,7.396-1.142,15.8396,15.8396,0,0,0,5.50414-3.21277A14.03625,14.03625,0,0,0,655.28,98.11207a16.53509,16.53509,0,0,0,1.2053-6.42964,10.78908,10.78908,0,0,0-1.77618-6.40345,14.65541,14.65541,0,0,0-4.66075-4.17938,32.3549,32.3549,0,0,0-6.61242-2.85838q-3.728-1.17558-7.57891-2.40331a80.28786,80.28786,0,0,1-7.57515-2.85838,24.32547,24.32547,0,0,1-6.61242-4.20922,19.28593,19.28593,0,0,1-4.66075-6.46312,23.00737,23.00737,0,0,1-1.77629-9.59025,22.86277,22.86277,0,0,1,6.94449-16.41528,25.37526,25.37526,0,0,1,8.36252-5.29153A30.512,30.512,0,0,1,641.932,29.025a36.18611,36.18611,0,0,1,13.139,2.28761,31.01246,31.01246,0,0,1,10.43365,6.61595Z"/>
    <polygon class="a" points="736.995 106.652 736.935 116.153 683.842 116.153 683.842 29.99 736.935 29.99 736.935 39.487 695.507 39.487 695.507 68.112 729.058 68.112 729.058 77.251 695.507 77.251 695.507 106.652 736.995 106.652"/>
    <polygon class="a" points="802.174 106.353 802.174 116.152 753.29 116.152 753.29 29.99 764.895 29.99 764.895 106.353 802.174 106.353"/>
    <path class="a" d="M889.65972,116.1531h-9.01926a3.87333,3.87333,0,0,1-2.5263-.78349,4.78062,4.78062,0,0,1-1.444-1.9815l-8.05652-20.80762H829.954l-8.05652,20.80762a4.26087,4.26087,0,0,1-1.38819,1.92548,3.83933,3.83933,0,0,1-2.52243.83952h-9.01926l34.45381-86.16264h11.78448ZM865.36716,84.1657L851.84009,49.11106c-0.39949-1.04109-.82472-2.25755-1.2652-3.6421q-0.66039-2.071-1.2611-4.41807a65.20515,65.20515,0,0,1-2.5862,8.11984l-13.52707,34.995h32.16665Z"/>
    <polygon class="a" points="949.609 106.652 949.546 116.153 896.456 116.153 896.456 29.99 949.546 29.99 949.546 39.487 908.117 39.487 908.117 68.112 941.668 68.112 941.668 77.251 908.117 77.251 908.117 106.652 949.609 106.652"/>
    <path class="a" d="M1029.57944,116.15333h-10.34026a5.08869,5.08869,0,0,1-4.6907-2.46663L992.18117,82.90095a6.69816,6.69816,0,0,0-2.19423-2.07466,8.01205,8.01205,0,0,0-3.64187-.63067h-8.8366v35.9577H965.90323V29.99068h24.35246a53.107,53.107,0,0,1,14.1279,1.65308,26.97265,26.97265,0,0,1,9.83282,4.78021,19.13359,19.13359,0,0,1,5.74295,7.5452,25.22044,25.22044,0,0,1,1.86193,9.88885,24.75408,24.75408,0,0,1-1.444,8.53778,22.52207,22.52207,0,0,1-4.17938,7.12749,24.94733,24.94733,0,0,1-6.6722,5.38081,32.96244,32.96244,0,0,1-8.92975,3.3697,11.53743,11.53743,0,0,1,3.851,3.66442Zm-39.805-44.436a29.40794,29.40794,0,0,0,8.92952-1.23514,18.16275,18.16275,0,0,0,6.49318-3.48517,14.42327,14.42327,0,0,0,3.93682-5.381,17.53116,17.53116,0,0,0,1.32465-6.91477q0-7.69644-5.05261-11.60137-5.04874-3.91279-15.15031-3.91085H977.50847V71.71729h12.266Z"/>
    <path class="a" d="M380.97988,279.45924a44.99618,44.99618,0,0,0,17.88182-3.37334,37.51073,37.51073,0,0,0,13.3255-9.44836,41.33158,41.33158,0,0,0,8.32528-14.50848,57.35767,57.35767,0,0,0,2.86589-18.55736V135.61352h21.7067v97.95817a73.45869,73.45869,0,0,1-4.44438,25.86751,60.05953,60.05953,0,0,1-12.70611,20.63953,58.06652,58.06652,0,0,1-20.188,13.66509,74.88053,74.88053,0,0,1-53.53729,0,58.64776,58.64776,0,0,1-20.244-13.66509,59.581,59.581,0,0,1-12.76578-20.63953,73.54285,73.54285,0,0,1-4.44062-25.86751V135.61352h21.70681v97.84623a57.2876,57.2876,0,0,0,2.86954,18.55736,41.31672,41.31672,0,0,0,8.31776,14.50848A38.01248,38.01248,0,0,0,363.03827,276.03a44.75156,44.75156,0,0,0,17.94161,3.42926"/>
    <path class="a" d="M614.79933,135.61193V296.78H603.88808a9.35348,9.35348,0,0,1-4.32868-.89931,10.90077,10.90077,0,0,1-3.43313-3.03751L502.89216,171.3758q0.22394,2.81544.33959,5.51154c0.07083,1.80226.11194,3.489,0.11194,5.06012V296.78H484.223v-161.168h11.24333a15.94525,15.94525,0,0,1,2.47779.16809,6.39078,6.39078,0,0,1,1.79861.56348,6.87508,6.87508,0,0,1,1.57473,1.127,17.33667,17.33667,0,0,1,1.68667,1.85464l93.23411,121.35165q-0.22377-2.92186-.39175-5.67952-0.16792-2.75395-.168-5.228V135.61193h19.12083Z"/>
    <rect class="a" x="655.95962" y="135.61215" width="21.8224" height="161.16805"/>
    <path class="a" d="M867.852,216.25141a93.01427,93.01427,0,0,1-5.7393,33.23746,75.97368,75.97368,0,0,1-16.195,26.03173,72.29218,72.29218,0,0,1-25.13618,16.93025,90.36314,90.36314,0,0,1-64.83664,0,72.40894,72.40894,0,0,1-25.08-16.93025,76.09282,76.09282,0,0,1-16.19891-26.03173,99.1617,99.1617,0,0,1,0-66.47093,76.78257,76.78257,0,0,1,16.19891-26.0914,72.7821,72.7821,0,0,1,25.08-17.0423,89.585,89.585,0,0,1,64.83664,0,72.66178,72.66178,0,0,1,25.13618,17.0423,76.66154,76.66154,0,0,1,16.195,26.0914,93.02243,93.02243,0,0,1,5.7393,33.23347m-22.38212,0a81.95122,81.95122,0,0,0-4.04887-26.65465,56.40472,56.40472,0,0,0-11.47109-19.96035,49.83522,49.83522,0,0,0-17.99365-12.542,65.45379,65.45379,0,0,0-47.12655,0,50.30527,50.30527,0,0,0-18.04968,12.542,55.90145,55.90145,0,0,0-11.53065,19.96035,81.94823,81.94823,0,0,0-4.04876,26.65465,81.42694,81.42694,0,0,0,4.04876,26.599A55.99207,55.99207,0,0,0,746.78,262.75846a49.658,49.658,0,0,0,18.04968,12.48222,66.24387,66.24387,0,0,0,47.12655,0,49.19733,49.19733,0,0,0,17.99365-12.48222A56.49766,56.49766,0,0,0,841.421,242.85037a81.42989,81.42989,0,0,0,4.04887-26.599"/>
    <path class="a" d="M1029.57944,135.61193V296.78h-10.91126a9.354,9.354,0,0,1-4.32879-.89931,10.90051,10.90051,0,0,1-3.433-3.03751L917.67227,171.3758q0.22377,2.81544.33959,5.51154c0.07083,1.80226.11183,3.489,0.11183,5.06012V296.78H899.00309v-161.168h11.24333a15.94631,15.94631,0,0,1,2.47779.16809,6.392,6.392,0,0,1,1.79861.56348,6.87508,6.87508,0,0,1,1.57473,1.127,17.34885,17.34885,0,0,1,1.68656,1.85464l93.23411,121.35165q-0.22377-2.92186-.39175-5.67952-0.16775-2.75395-.16786-5.228V135.61193h19.12083Z"/>
  </g>
  <line class="b" x1="30.35539" y1="334.79536" x2="1030.35619" y2="334.79536"/>
  <g>
    <path class="a" d="M273.12863,414.0892a25.3465,25.3465,0,0,1-1.0332,7.52539,15.23055,15.23055,0,0,1-3.04492,5.61719,13.28112,13.28112,0,0,1-4.95215,3.51758,17.4472,17.4472,0,0,1-6.75488,1.22461,26.879,26.879,0,0,1-7.07031-.97949q0.07031-1.01514.1748-2.0127,0.10547-.99756.17578-1.97754a1.56648,1.56648,0,0,1,.4375-0.96191,1.54776,1.54776,0,0,1,1.13672-.36816,6.03334,6.03334,0,0,1,1.66309.31543,9.86,9.86,0,0,0,2.78223.31445,11.43412,11.43412,0,0,0,4.12988-.69922,7.31032,7.31032,0,0,0,3.04492-2.1709,10.08587,10.08587,0,0,0,1.873-3.76172,20.17619,20.17619,0,0,0,.64746-5.44238v-32.9707h6.79V414.0892Z"/>
    <path class="a" d="M304.7673,426.02475a14.00348,14.00348,0,0,0,5.56543-1.05078,11.66945,11.66945,0,0,0,4.14746-2.93945,12.86265,12.86265,0,0,0,2.58984-4.51465,17.85711,17.85711,0,0,0,.89258-5.77539V381.25912h6.75488v30.48535a22.86614,22.86614,0,0,1-1.38281,8.0498,18.69512,18.69512,0,0,1-3.95508,6.42285,18.07914,18.07914,0,0,1-6.28223,4.252,23.29874,23.29874,0,0,1-16.66016,0,18.25246,18.25246,0,0,1-6.2998-4.252,18.57347,18.57347,0,0,1-3.97266-6.42285,22.86591,22.86591,0,0,1-1.38184-8.0498V381.25912h6.75488v30.4502a17.83065,17.83065,0,0,0,.89258,5.77539,12.84766,12.84766,0,0,0,2.58984,4.51465,11.819,11.819,0,0,0,4.165,2.958A13.92033,13.92033,0,0,0,304.7673,426.02475Z"/>
    <path class="a" d="M380.36691,406.35483a28.23318,28.23318,0,0,1-1.78516,10.25488,22.73631,22.73631,0,0,1-5.04,7.91016,22.42561,22.42561,0,0,1-7.82227,5.0918,27.27462,27.27462,0,0,1-10.09766,1.80273H336.89719V381.25912H355.6218a27.29448,27.29448,0,0,1,10.09766,1.80273,22.319,22.319,0,0,1,7.82227,5.11035,22.925,22.925,0,0,1,5.04,7.92676A28.23851,28.23851,0,0,1,380.36691,406.35483Zm-6.96484,0a25.18616,25.18616,0,0,0-1.25977-8.26074,17.43514,17.43514,0,0,0-3.57031-6.16016,15.23593,15.23593,0,0,0-5.59961-3.84961,19.4557,19.4557,0,0,0-7.35059-1.33008H343.68723v39.165H355.6218a19.43671,19.43671,0,0,0,7.35059-1.33008,15.3358,15.3358,0,0,0,5.59961-3.832,17.2356,17.2356,0,0,0,3.57031-6.14258A25.18013,25.18013,0,0,0,373.40207,406.35483Z"/>
    <path class="a" d="M396.9216,431.4144h-6.79V381.25912h6.79V431.4144Z"/>
    <path class="a" d="M444.94113,421.054a1.296,1.296,0,0,1,.97949.45508l2.69531,2.90527a21.47044,21.47044,0,0,1-7.47266,5.56543,25.59115,25.59115,0,0,1-10.62207,1.99414,24.841,24.841,0,0,1-9.80078-1.87207,21.54566,21.54566,0,0,1-7.52441-5.25,23.712,23.712,0,0,1-4.83008-8.10254,30.26375,30.26375,0,0,1-1.71484-10.39453,29.19,29.19,0,0,1,1.78516-10.39551,23.76837,23.76837,0,0,1,5.02246-8.12012,22.46712,22.46712,0,0,1,7.752-5.26758,25.8,25.8,0,0,1,9.97559-1.87207,24.31056,24.31056,0,0,1,9.44922,1.71484,23.783,23.783,0,0,1,7.21,4.65527l-2.23926,3.11426a1.8307,1.8307,0,0,1-.543.57813,1.55184,1.55184,0,0,1-.89258.22754,2.776,2.776,0,0,1-1.54-.68262,23.228,23.228,0,0,0-2.37988-1.52246,17.70517,17.70517,0,0,0-9.09961-2.20508,18.22832,18.22832,0,0,0-7.10547,1.34766,15.50583,15.50583,0,0,0-5.54687,3.90234,17.99173,17.99173,0,0,0-3.623,6.22949,24.86549,24.86549,0,0,0-1.29492,8.2959,24.18575,24.18575,0,0,0,1.34766,8.36426,18.45085,18.45085,0,0,0,3.6748,6.21289,15.51868,15.51868,0,0,0,5.49512,3.86719,17.47454,17.47454,0,0,0,6.84277,1.33008,28.11037,28.11037,0,0,0,4.042-.2627,16.43564,16.43564,0,0,0,3.3252-.82227,14.00905,14.00905,0,0,0,2.835-1.417,20.19674,20.19674,0,0,0,2.60742-2.04785A1.81168,1.81168,0,0,1,444.94113,421.054Z"/>
    <path class="a" d="M463.282,431.4144h-6.79V381.25912h6.79V431.4144Z"/>
    <path class="a" d="M516.86594,431.4144h-5.25a2.25564,2.25564,0,0,1-1.46973-.45508,2.78894,2.78894,0,0,1-.83984-1.15527l-4.69043-12.10937H482.11105L477.4216,429.804a2.46343,2.46343,0,0,1-.80566,1.12012,2.233,2.233,0,0,1-1.46973.49023h-5.25l20.05469-50.15527h6.86035Zm-14.13965-18.62012-7.875-20.40527q-0.3501-.90967-0.73535-2.11719-0.38525-1.207-.73437-2.57227a38.28471,38.28471,0,0,1-1.50488,4.72461l-7.875,20.37012h18.72461Z"/>
    <path class="a" d="M551.93527,425.70932v5.70508H523.48019V381.25912h6.75488v44.4502h21.7002Z"/>
    <path class="a" d="M591.24,381.25912a30.58508,30.58508,0,0,1,7.96191.91016,15.42666,15.42666,0,0,1,5.49512,2.58984,10.08262,10.08262,0,0,1,3.168,4.1123,14.12372,14.12372,0,0,1,1.01465,5.47754,10.95493,10.95493,0,0,1-.57715,3.55273,10.69173,10.69173,0,0,1-1.73242,3.168,12.405,12.405,0,0,1-2.92285,2.64258,16.04067,16.04067,0,0,1-4.14746,1.90723q5.52979,1.05029,8.3125,3.9375a10.46344,10.46344,0,0,1,2.78223,7.57715,14.07882,14.07882,0,0,1-1.17285,5.81055,12.44009,12.44009,0,0,1-3.42969,4.51465,15.9945,15.9945,0,0,1-5.54687,2.92285,25.00179,25.00179,0,0,1-7.49023,1.03223h-17.71V381.25912H591.24Zm-9.24023,5.35547v17.11523h8.96a17.54723,17.54723,0,0,0,4.9873-.63086,10.04589,10.04589,0,0,0,3.5-1.75,6.83707,6.83707,0,0,0,2.04785-2.71191,8.96571,8.96571,0,0,0,.665-3.48242q0-4.44434-2.66016-6.49316-2.66016-2.04639-8.25977-2.04687h-9.24023Zm10.84961,39.41016a16.66693,16.66693,0,0,0,5.00488-.665,9.28041,9.28041,0,0,0,3.44824-1.873,7.27605,7.27605,0,0,0,1.97754-2.87012,10.24063,10.24063,0,0,0,.62988-3.65723,7.50745,7.50745,0,0,0-2.76562-6.14258q-2.76416-2.25732-8.29492-2.25781H581.99973v17.46582h10.84961Z"/>
    <path class="a" d="M666.83957,406.35483a28.93387,28.93387,0,0,1-1.78516,10.3418,23.68351,23.68351,0,0,1-5.04,8.10254,22.51614,22.51614,0,0,1-7.82227,5.26758,28.10754,28.10754,0,0,1-20.17773,0,22.55372,22.55372,0,0,1-7.80469-5.26758,23.66869,23.66869,0,0,1-5.04-8.10254,30.85154,30.85154,0,0,1,0-20.68457,23.87692,23.87692,0,0,1,5.04-8.12012,22.63989,22.63989,0,0,1,7.80469-5.30273,27.87713,27.87713,0,0,1,20.17773,0,22.60136,22.60136,0,0,1,7.82227,5.30273,23.892,23.892,0,0,1,5.04,8.12012A28.94309,28.94309,0,0,1,666.83957,406.35483Zm-6.96484,0a25.47283,25.47283,0,0,0-1.26074-8.2959,17.55143,17.55143,0,0,0-3.56934-6.21191,15.49858,15.49858,0,0,0-5.60059-3.90234,20.37358,20.37358,0,0,0-14.665,0,15.66264,15.66264,0,0,0-5.61719,3.90234,17.408,17.408,0,0,0-3.58691,6.21191,27.86354,27.86354,0,0,0,0,16.57324,17.41352,17.41352,0,0,0,3.58691,6.19434,15.46616,15.46616,0,0,0,5.61719,3.88574,20.63561,20.63561,0,0,0,14.665,0,15.30549,15.30549,0,0,0,5.60059-3.88574,17.55725,17.55725,0,0,0,3.56934-6.19434A25.312,25.312,0,0,0,659.87473,406.35483Z"/>
    <path class="a" d="M715.97824,431.4144h-5.25a2.25564,2.25564,0,0,1-1.46973-.45508,2.78894,2.78894,0,0,1-.83984-1.15527l-4.69043-12.10937H681.22336L676.5339,429.804a2.46343,2.46343,0,0,1-.80566,1.12012,2.233,2.233,0,0,1-1.46973.49023h-5.25l20.05469-50.15527h6.86035Zm-14.13965-18.62012-7.875-20.40527q-0.3501-.90967-0.73535-2.11719-0.38525-1.207-.73437-2.57227a38.28471,38.28471,0,0,1-1.50488,4.72461l-7.875,20.37012h18.72461Z"/>
    <path class="a" d="M759.65793,431.4144H753.6384a2.96726,2.96726,0,0,1-2.73047-1.43457l-13.01953-17.9209a3.86928,3.86928,0,0,0-1.27734-1.207,4.65437,4.65437,0,0,0-2.11816-.36719h-5.14453V431.4144h-6.75488V381.25912h14.1748a30.9711,30.9711,0,0,1,8.22461.96289,15.69851,15.69851,0,0,1,5.72266,2.78223,11.15111,11.15111,0,0,1,3.34277,4.39258,14.69406,14.69406,0,0,1,1.085,5.75781,14.44164,14.44164,0,0,1-.83984,4.96973,13.1346,13.1346,0,0,1-2.43262,4.14746,14.58846,14.58846,0,0,1-3.88477,3.13281,19.25428,19.25428,0,0,1-5.19824,1.96,6.71554,6.71554,0,0,1,2.24023,2.13477ZM736.488,405.54916a17.16047,17.16047,0,0,0,5.19727-.7168,10.64084,10.64084,0,0,0,3.78027-2.03027,8.41492,8.41492,0,0,0,2.293-3.13281,10.23661,10.23661,0,0,0,.76953-4.02441,8.01563,8.01563,0,0,0-2.93945-6.75586q-2.93994-2.27344-8.82031-2.27441h-7.41992v18.93457H736.488Z"/>
    <path class="a" d="M809.91769,406.35483a28.23317,28.23317,0,0,1-1.78516,10.25488,22.73631,22.73631,0,0,1-5.04,7.91016,22.42561,22.42561,0,0,1-7.82227,5.0918,27.27462,27.27462,0,0,1-10.09766,1.80273H766.448V381.25912h18.72461a27.29448,27.29448,0,0,1,10.09766,1.80273,22.319,22.319,0,0,1,7.82227,5.11035,22.925,22.925,0,0,1,5.04,7.92676A28.23851,28.23851,0,0,1,809.91769,406.35483Zm-6.96484,0a25.18616,25.18616,0,0,0-1.25977-8.26074,17.43515,17.43515,0,0,0-3.57031-6.16016,15.23593,15.23593,0,0,0-5.59961-3.84961,19.4557,19.4557,0,0,0-7.35059-1.33008H773.238v39.165h11.93457a19.43671,19.43671,0,0,0,7.35059-1.33008,15.3358,15.3358,0,0,0,5.59961-3.832,17.2356,17.2356,0,0,0,3.57031-6.14258A25.18013,25.18013,0,0,0,802.95285,406.35483Z"/>
  </g>
</svg>
