<svg xmlns="http://www.w3.org/2000/svg" viewBox="0 0 1013.49572 452.60576">
  <defs>
    <style>
      .a, .b {
        fill: #fff;
      }

      .a {
        stroke: #fff;
        stroke-miterlimit: 10;
        stroke-width: 4px;
      }
    </style>
  </defs>
  <title>WHITE</title>
  <line class="a" x1="29.57944" y1="331.0979" x2="988.85622" y2="331.0979"/>
  <g>
    <path class="b" d="M213.76941,367.40346l-15.64648,50.15527h-6.08984L179.328,379.30386c-0.11719-.373-0.22656-0.77051-0.332-1.19043s-0.2168-.8623-0.332-1.33008c-0.11719.46777-.23437,0.91016-0.34961,1.33008q-0.17578.62988-.35156,1.19043l-12.77344,38.25488h-6.08984L143.453,367.40346h5.63477a2.48728,2.48728,0,0,1,1.52344.45508,2.022,2.022,0,0,1,.78711,1.15527l10.35938,34.86035q0.24609,0.94482.47266,2.0293,0.22852,1.08545.4375,2.31055,0.24609-1.22461.50781-2.32812,0.26367-1.10156.57813-2.01172l11.79492-34.86035a2.5703,2.5703,0,0,1,.82227-1.10254,2.25811,2.25811,0,0,1,1.48828-.50781h1.959a2.26209,2.26209,0,0,1,1.4707.45508,2.81022,2.81022,0,0,1,.83984,1.15527l11.75977,34.86035q0.31641,0.90967.57813,1.96,0.26074,1.04883.50781,2.20508,0.17285-1.15576.38477-2.20508,0.208-1.05029.45508-1.96l10.39453-34.86035a2.18162,2.18162,0,0,1,.78711-1.12012,2.30993,2.30993,0,0,1,1.48828-.49023h5.28516Z"/>
    <path class="b" d="M252.19714,412.02846l-0.03516,5.53027h-30.9043V367.40346H252.162v5.53027H228.0487v16.66016H247.578v5.32031H228.0487v17.11426h24.14844Z"/>
    <path class="b" d="M290.13855,411.85366v5.70508H261.68347V367.40346h6.75391v44.4502h21.70117Z"/>
    <path class="b" d="M326.08191,411.85366v5.70508H297.62683V367.40346h6.75586v44.4502h21.69922Z"/>
    <path class="b" d="M374.20691,367.40346v50.15527h-3.39648a2.90243,2.90243,0,0,1-1.3457-.28027,3.37806,3.37806,0,0,1-1.06836-.94434l-29.01562-37.80078q0.07031,0.876.10547,1.71582,0.03516,0.83936.03516,1.57422v35.73535h-5.94922V367.40346h3.5a4.768,4.768,0,0,1,.76953.05273,2.01742,2.01742,0,0,1,.56055.1748,2.14365,2.14365,0,0,1,.48828.35059,5.33717,5.33717,0,0,1,.52539.57715l29.01563,37.76465q-0.07031-.90967-0.123-1.76758-0.05273-.85693-0.05273-1.627V367.40346h5.95117Z"/>
    <path class="b" d="M417.955,412.02846l-0.03516,5.53027H387.0155V367.40346h30.9043v5.53027H393.80652v16.66016h19.5293v5.32031h-19.5293v17.11426H417.955Z"/>
    <path class="b" d="M453.09558,375.24331a2.59313,2.59313,0,0,1-.68164.78809,1.50008,1.50008,0,0,1-.89258.2627,2.48574,2.48574,0,0,1-1.40039-.5957q-0.80566-.59473-2.01367-1.3125a16.30954,16.30954,0,0,0-2.9043-1.3125,12.50934,12.50934,0,0,0-4.11328-.59473,12.02452,12.02452,0,0,0-4.00586.6123,8.58515,8.58515,0,0,0-2.90625,1.66309,6.82412,6.82412,0,0,0-1.76758,2.4668,7.839,7.839,0,0,0-.59375,3.0625,5.66176,5.66176,0,0,0,1.03125,3.48242,8.86084,8.86084,0,0,0,2.73047,2.36328,20.88255,20.88255,0,0,0,3.84961,1.69727q2.15332,0.71777,4.41016,1.4873,2.25879,0.77051,4.41016,1.73242a15.52542,15.52542,0,0,1,3.84961,2.43262,11.09187,11.09187,0,0,1,2.73047,3.60547,12.00669,12.00669,0,0,1,1.0332,5.25,16.93977,16.93977,0,0,1-1.12109,6.17676,14.239,14.239,0,0,1-3.27148,5.02246,15.30865,15.30865,0,0,1-5.28516,3.36035,19.453,19.453,0,0,1-7.123,1.22461,21.725,21.725,0,0,1-8.89062-1.7666,20.85159,20.85159,0,0,1-6.82422-4.77832l1.959-3.21973a2.56988,2.56988,0,0,1,.68359-0.64746,1.5962,1.5962,0,0,1,.89258-0.2627,1.99316,1.99316,0,0,1,1.0332.36816q0.57715,0.36621,1.3125.92676,0.73242,0.561,1.67969,1.22559a13.81772,13.81772,0,0,0,2.15234,1.22461,14.53733,14.53733,0,0,0,2.74609.92773,14.96828,14.96828,0,0,0,3.4668.36719,12.92925,12.92925,0,0,0,4.30469-.665,9.12873,9.12873,0,0,0,3.20117-1.87207,8.1228,8.1228,0,0,0,2.01367-2.8877,9.64647,9.64647,0,0,0,.69922-3.74512,6.291,6.291,0,0,0-1.03125-3.72754,8.58863,8.58863,0,0,0-2.71289-2.43262,18.95754,18.95754,0,0,0-3.84961-1.66211q-2.1709-.68262-4.41016-1.40039a46.37008,46.37008,0,0,1-4.41016-1.66211,14.20581,14.20581,0,0,1-3.84961-2.4502,11.22985,11.22985,0,0,1-2.71289-3.7627,14.41793,14.41793,0,0,1,0-10.72754,13.13939,13.13939,0,0,1,3.00977-4.41016,14.70556,14.70556,0,0,1,4.86523-3.0791,17.73873,17.73873,0,0,1,6.63281-1.15527,21.089,21.089,0,0,1,7.64648,1.33008,18.06219,18.06219,0,0,1,6.07227,3.84961Z"/>
    <path class="b" d="M491.07019,375.24331a2.59313,2.59313,0,0,1-.68164.78809,1.50008,1.50008,0,0,1-.89258.2627,2.48574,2.48574,0,0,1-1.40039-.5957q-0.80566-.59473-2.01367-1.3125a16.30954,16.30954,0,0,0-2.9043-1.3125,12.50934,12.50934,0,0,0-4.11328-.59473,12.02452,12.02452,0,0,0-4.00586.6123,8.58515,8.58515,0,0,0-2.90625,1.66309,6.82412,6.82412,0,0,0-1.76758,2.4668,7.839,7.839,0,0,0-.59375,3.0625,5.66176,5.66176,0,0,0,1.03125,3.48242,8.86084,8.86084,0,0,0,2.73047,2.36328,20.88256,20.88256,0,0,0,3.84961,1.69727q2.15332,0.71777,4.41016,1.4873,2.25879,0.77051,4.41016,1.73242a15.52542,15.52542,0,0,1,3.84961,2.43262,11.09187,11.09187,0,0,1,2.73047,3.60547,12.00669,12.00669,0,0,1,1.0332,5.25,16.93977,16.93977,0,0,1-1.12109,6.17676,14.239,14.239,0,0,1-3.27148,5.02246,15.30865,15.30865,0,0,1-5.28516,3.36035,19.453,19.453,0,0,1-7.123,1.22461,21.725,21.725,0,0,1-8.89062-1.7666,20.85159,20.85159,0,0,1-6.82422-4.77832l1.959-3.21973a2.56988,2.56988,0,0,1,.68359-0.64746,1.5962,1.5962,0,0,1,.89258-0.2627,1.99315,1.99315,0,0,1,1.0332.36816q0.57715,0.36621,1.3125.92676,0.73242,0.561,1.67969,1.22559a13.81773,13.81773,0,0,0,2.15234,1.22461,14.53733,14.53733,0,0,0,2.74609.92773,14.96828,14.96828,0,0,0,3.4668.36719,12.92925,12.92925,0,0,0,4.30469-.665,9.12873,9.12873,0,0,0,3.20117-1.87207,8.1228,8.1228,0,0,0,2.01367-2.8877,9.64647,9.64647,0,0,0,.69922-3.74512,6.291,6.291,0,0,0-1.03125-3.72754,8.58863,8.58863,0,0,0-2.71289-2.43262,18.95754,18.95754,0,0,0-3.84961-1.66211q-2.1709-.68262-4.41016-1.40039a46.37007,46.37007,0,0,1-4.41016-1.66211,14.20582,14.20582,0,0,1-3.84961-2.4502,11.22985,11.22985,0,0,1-2.71289-3.7627,14.41793,14.41793,0,0,1,0-10.72754,13.13939,13.13939,0,0,1,3.00977-4.41016,14.70557,14.70557,0,0,1,4.86523-3.0791,17.73873,17.73873,0,0,1,6.63281-1.15527,21.089,21.089,0,0,1,7.64648,1.33008,18.06219,18.06219,0,0,1,6.07227,3.84961Z"/>
    <path class="b" d="M528.09948,417.55874h-6.78906V367.40346h6.78906v50.15527Z"/>
    <path class="b" d="M581.5448,367.40346v50.15527h-3.39648a2.90243,2.90243,0,0,1-1.3457-.28027,3.37806,3.37806,0,0,1-1.06836-.94434l-29.01562-37.80078q0.07031,0.876.10547,1.71582,0.03516,0.83936.03516,1.57422v35.73535H540.91V367.40346h3.5a4.768,4.768,0,0,1,.76953.05273,2.01742,2.01742,0,0,1,.56055.1748,2.14365,2.14365,0,0,1,.48828.35059,5.33717,5.33717,0,0,1,.52539.57715l29.01563,37.76465q-0.07031-.90967-0.123-1.76758-0.05273-.85693-0.05273-1.627V367.40346h5.95117Z"/>
    <path class="b" d="M620.00769,375.24331a2.567,2.567,0,0,1-.68164.78809,1.49593,1.49593,0,0,1-.89258.2627,2.49621,2.49621,0,0,1-1.40039-.5957q-0.80566-.59473-2.01172-1.3125a16.30954,16.30954,0,0,0-2.9043-1.3125,12.51747,12.51747,0,0,0-4.11328-.59473,12.02837,12.02837,0,0,0-4.00781.6123,8.59444,8.59444,0,0,0-2.9043,1.66309,6.801,6.801,0,0,0-1.76758,2.4668,7.805,7.805,0,0,0-.5957,3.0625,5.65006,5.65006,0,0,0,1.0332,3.48242,8.86084,8.86084,0,0,0,2.73047,2.36328,20.88255,20.88255,0,0,0,3.84961,1.69727q2.15039,0.71777,4.41016,1.4873,2.25586,0.77051,4.41016,1.73242a15.59757,15.59757,0,0,1,3.84961,2.43262,11.1191,11.1191,0,0,1,2.73047,3.60547,12.00761,12.00761,0,0,1,1.03125,5.25,16.93875,16.93875,0,0,1-1.11914,6.17676,14.24376,14.24376,0,0,1-3.27344,5.02246,15.30865,15.30865,0,0,1-5.28516,3.36035,19.44231,19.44231,0,0,1-7.12109,1.22461,21.725,21.725,0,0,1-8.89062-1.7666,20.85989,20.85989,0,0,1-6.82617-4.77832l1.96094-3.21973a2.56213,2.56213,0,0,1,.68164-0.64746,1.60542,1.60542,0,0,1,.89258-0.2627,1.98188,1.98188,0,0,1,1.0332.36816q0.57715,0.36621,1.3125.92676,0.73535,0.561,1.67969,1.22559a13.90861,13.90861,0,0,0,2.15234,1.22461,14.51119,14.51119,0,0,0,2.748.92773,14.96278,14.96278,0,0,0,3.46484.36719,12.92925,12.92925,0,0,0,4.30469-.665,9.13764,9.13764,0,0,0,3.20313-1.87207,8.11788,8.11788,0,0,0,2.01172-2.8877,9.64674,9.64674,0,0,0,.70117-3.74512,6.29143,6.29143,0,0,0-1.0332-3.72754,8.54661,8.54661,0,0,0-2.71289-2.43262,18.86283,18.86283,0,0,0-3.84961-1.66211q-2.1709-.68262-4.41016-1.40039a46.57054,46.57054,0,0,1-4.41016-1.66211,14.20582,14.20582,0,0,1-3.84961-2.4502,11.25679,11.25679,0,0,1-2.71289-3.7627,14.44328,14.44328,0,0,1,0-10.72754,13.13939,13.13939,0,0,1,3.00977-4.41016,14.72565,14.72565,0,0,1,4.86523-3.0791,17.75306,17.75306,0,0,1,6.63281-1.15527,21.09223,21.09223,0,0,1,7.64844,1.33008,18.08145,18.08145,0,0,1,6.07227,3.84961Z"/>
    <path class="b" d="M666.244,373.10854H650.00378v44.4502h-6.75586v-44.4502H626.97253v-5.70508H666.244v5.70508Z"/>
    <path class="b" d="M680.453,417.55874h-6.78906V367.40346H680.453v50.15527Z"/>
    <path class="b" d="M727.17956,373.10854H710.93933v44.4502h-6.75586v-44.4502H687.90808v-5.70508h39.27148v5.70508Z"/>
    <path class="b" d="M753.953,412.16909a14.00835,14.00835,0,0,0,5.56641-1.05078,11.65706,11.65706,0,0,0,4.14648-2.93945,12.84766,12.84766,0,0,0,2.58984-4.51465,17.83065,17.83065,0,0,0,.89258-5.77539V367.40346h6.75586v30.48535a22.86614,22.86614,0,0,1-1.38281,8.0498,18.71,18.71,0,0,1-3.95508,6.42285,18.08317,18.08317,0,0,1-6.2832,4.252,23.29873,23.29873,0,0,1-16.66016,0,18.2576,18.2576,0,0,1-6.29883-4.252,18.57347,18.57347,0,0,1-3.97266-6.42285,22.86614,22.86614,0,0,1-1.38281-8.0498V367.40346h6.75586v30.4502a17.83065,17.83065,0,0,0,.89258,5.77539,12.81778,12.81778,0,0,0,2.58984,4.51465,11.824,11.824,0,0,0,4.16406,2.958A13.92367,13.92367,0,0,0,753.953,412.16909Z"/>
    <path class="b" d="M819.99792,373.10854H803.75769v44.4502h-6.75391v-44.4502H780.72839v-5.70508h39.26953v5.70508Z"/>
    <path class="b" d="M858.3573,412.02846l-0.03516,5.53027h-30.9043V367.40346h30.9043v5.53027H834.20886v16.66016h19.5293v5.32031h-19.5293v17.11426H858.3573Z"/>
  </g>
  <g>
    <g>
      <path class="b" d="M431.37224,28.37513v110.039H418.318V57.555q0-1.61261.11527-3.45528,0.115-1.84341.26864-3.763L380.92144,119.14a5.71722,5.71722,0,0,1-5.37537,3.45577h-2.14965A5.71531,5.71531,0,0,1,368.021,119.14l-38.5483-69.11a67.21021,67.21021,0,0,1,.4606,7.525v80.85912H316.87959V28.37513h10.98079a9.57152,9.57152,0,0,1,3.07136.38392,4.429,4.429,0,0,1,2.07346,2.15015l38.01052,67.72817q0.9217,1.84267,1.80432,3.8392,0.88237,1.99777,1.65145,4.07024,0.7666-2.07346,1.61236-4.10834a41.48786,41.48786,0,0,1,1.84291-3.87779L415.24613,30.9092a4.08087,4.08087,0,0,1,2.03487-2.15015,9.93835,9.93835,0,0,1,3.10995-.38392h10.98129Z"/>
      <path class="b" d="M501.94073,126.5888a30.73282,30.73282,0,0,0,12.20973-2.304,25.624,25.624,0,0,0,9.09929-6.44995,28.21993,28.21993,0,0,0,5.6826-9.90622A39.15865,39.15865,0,0,0,530.89,95.25878V28.37513h14.82049V95.25878a50.18648,50.18648,0,0,1-3.03326,17.66129A41.02837,41.02837,0,0,1,534,127.01082a39.669,39.669,0,0,1-13.78351,9.32984,51.1117,51.1117,0,0,1-36.55152,0,40.05575,40.05575,0,0,1-13.8221-9.32984,40.69841,40.69841,0,0,1-8.71537-14.09074,50.16409,50.16409,0,0,1-3.03326-17.66129V28.37513h14.82V95.1816a39.15945,39.15945,0,0,0,1.95819,12.67034,28.1981,28.1981,0,0,0,5.6826,9.90572,25.92988,25.92988,0,0,0,9.13788,6.489A30.55033,30.55033,0,0,0,501.94073,126.5888Z"/>
      <path class="b" d="M640.31358,126.28157l-0.07619,12.13255H572.432V28.37513h67.80535V40.50769H587.32871v36.552h42.8486V88.73165h-42.8486v37.54991h52.98487Z"/>
      <path class="b" d="M723.5529,125.89765v12.51647H661.12341V28.37513H675.9439v97.52251h47.609Z"/>
      <path class="b" d="M802.41375,125.89765v12.51647H739.98426V28.37513h14.82049v97.52251h47.609Z"/>
      <path class="b" d="M886.72666,126.28157l-0.07718,12.13255H818.84512V28.37513h67.80436V40.50769H833.7418v36.552h42.8486V88.73165H833.7418v37.54991h52.98487Z"/>
      <path class="b" d="M988.85622,138.41412H975.64859a6.51139,6.51139,0,0,1-5.99033-3.14854l-28.5654-39.31565a8.46341,8.46341,0,0,0-2.80222-2.64934,10.20789,10.20789,0,0,0-4.64563-.80643H922.357v45.92H907.53649V28.37513H938.636a67.967,67.967,0,0,1,18.04521,2.11205,34.46576,34.46576,0,0,1,12.55556,6.10462,24.444,24.444,0,0,1,7.33306,9.63708,32.2233,32.2233,0,0,1,2.3807,12.63175,31.65889,31.65889,0,0,1-1.84341,10.90411A28.80189,28.80189,0,0,1,971.7708,78.864a31.941,31.941,0,0,1-8.5244,6.873,42.15713,42.15713,0,0,1-11.40281,4.2998,14.73811,14.73811,0,0,1,4.91477,4.68422ZM938.02149,81.66674A37.64948,37.64948,0,0,0,949.4243,80.093a23.35106,23.35106,0,0,0,8.29385-4.45416,18.48446,18.48446,0,0,0,5.02955-6.87246,22.45954,22.45954,0,0,0,1.689-8.83065q0-9.82854-6.45044-14.82049-6.449-4.99071-19.35034-4.99145H922.357v41.543h15.66452Z"/>
    </g>
    <g>
      <path class="b" d="M415.34,267.96156a3.31577,3.31577,0,0,1,2.50391,1.1626l6.88574,7.42236a54.83589,54.83589,0,0,1-19.09277,14.21924q-11.22363,5.09766-27.1416,5.09717a63.43845,63.43845,0,0,1-25.03955-4.78418,55.04473,55.04473,0,0,1-19.22705-13.41406,60.60654,60.60654,0,0,1-12.34131-20.70264,77.3348,77.3348,0,0,1-4.38184-26.56006,74.5984,74.5984,0,0,1,4.561-26.56006,60.77569,60.77569,0,0,1,12.833-20.74756,57.39547,57.39547,0,0,1,19.80811-13.459,65.92925,65.92925,0,0,1,25.48682-4.78418A62.10453,62.10453,0,0,1,404.34,169.233a60.809,60.809,0,0,1,18.42236,11.894l-5.72363,7.959a4.67944,4.67944,0,0,1-1.38574,1.47559,3.9723,3.9723,0,0,1-2.28076.58105,7.09175,7.09175,0,0,1-3.93457-1.74365,59.88083,59.88083,0,0,0-6.08105-3.89014,45.23629,45.23629,0,0,0-23.25146-5.63379,46.58759,46.58759,0,0,0-18.15381,3.44287A39.64141,39.64141,0,0,0,347.777,193.2892a45.97833,45.97833,0,0,0-9.25586,15.918,63.50209,63.50209,0,0,0-3.30859,21.19482,61.80594,61.80594,0,0,0,3.44287,21.373,47.15681,47.15681,0,0,0,9.38965,15.87354,39.66043,39.66043,0,0,0,14.04053,9.88184,44.6756,44.6756,0,0,0,17.48291,3.39844,72.1181,72.1181,0,0,0,10.3291-.6709,42.14412,42.14412,0,0,0,8.49561-2.10156,35.66736,35.66736,0,0,0,7.24365-3.62207,51.51315,51.51315,0,0,0,6.6626-5.23145A4.62208,4.62208,0,0,1,415.34,267.96156Z"/>
      <path class="b" d="M523.90546,280.30287l-0.08984,14.12939H444.85077V166.28187h78.96484v14.12988H462.19989v42.56738h49.90088V236.5724H462.19989v43.73047h61.70557Z"/>
      <path class="b" d="M651.967,166.28187V294.43227h-8.6748a7.43942,7.43942,0,0,1-3.44336-.71533,8.67724,8.67724,0,0,1-2.72754-2.41455l-74.13574-96.58252q0.178,2.23682.26807,4.38232,0.08789,2.146.08936,4.02393v91.30615H548.14032V166.28187h8.94287a12.23286,12.23286,0,0,1,1.96729.13428,5.04637,5.04637,0,0,1,1.43115.44727,5.51006,5.51006,0,0,1,1.252.894,14.13311,14.13311,0,0,1,1.34131,1.47559l74.13623,96.49268q-0.18018-2.324-.31348-4.51611-0.1333-2.18994-.13379-4.1582V166.28187H651.967Z"/>
      <path class="b" d="M771.35077,180.85853H729.85566V294.43227H712.59589V180.85853h-41.584V166.28187H771.35077v14.57666Z"/>
      <path class="b" d="M869.36347,280.30287l-0.08984,14.12939H790.30878V166.28187h78.96484v14.12988H807.65839v42.56738h49.90039V236.5724H807.65839v43.73047h61.70508Z"/>
      <path class="b" d="M988.30292,294.43227H972.92108a7.58011,7.58011,0,0,1-6.97461-3.6665L932.6789,244.97865a9.8716,9.8716,0,0,0-3.26367-3.08545,11.89414,11.89414,0,0,0-5.41113-.939H910.85858v53.478H893.59882V166.28187h36.21875a79.1608,79.1608,0,0,1,21.01563,2.45947,40.134,40.134,0,0,1,14.62109,7.10938,28.47159,28.47159,0,0,1,8.54,11.22314,37.52085,37.52085,0,0,1,2.77246,14.71094,36.85544,36.85544,0,0,1-2.14648,12.69873,33.54414,33.54414,0,0,1-6.21484,10.59717,37.19378,37.19378,0,0,1-9.92676,8.00391,49.09469,49.09469,0,0,1-13.28027,5.00781,17.15566,17.15566,0,0,1,5.72363,5.45508Zm-59.20117-66.0874a43.85263,43.85263,0,0,0,13.28027-1.833,27.186,27.186,0,0,0,9.6582-5.187,21.51781,21.51781,0,0,0,5.85742-8.00391,26.15123,26.15123,0,0,0,1.96777-10.28418q0-11.44629-7.5127-17.25928-7.51172-5.8125-22.53516-5.813h-18.959v48.38037h18.24316Z"/>
    </g>
    <path class="b" d="M296.24944,134.02128V28.37513h-266.67V295.04185H162.44627v-11.6301H296.24944v-4.9946H265.94257V264.80686h30.30687v-4.9946H265.94257V246.202h30.30687v-4.9946H265.94257V227.59708h30.30687v-4.9946H265.94257V208.99219h30.30687v-4.99141H265.94257V190.3873h30.30687v-4.99141H265.94257V171.78559h30.30687v-4.99778H265.94257V153.05347h30.30687v-4.99121H162.44627v-14.041H296.24944ZM162.44627,264.80686h29.31508v13.61029H162.44627V264.80686Zm0-18.60489h29.31508v13.61029H162.44627V246.202Zm0-18.60489h29.31508v13.61029H162.44627V227.59708Zm0-18.60489h29.31508v13.61029H162.44627V208.99219Zm0-18.60489h29.31508v13.61029H162.44627V190.3873Zm0-18.6017h29.31508v13.61029H162.44627V171.78559Zm34.45642,37.2066h29.31508v13.61029H196.90269V208.99219Zm0-18.60489h29.31508v13.61029H196.90269V190.3873Zm0,37.20978h29.31508v13.61029H196.90269V227.59708Zm29.31488-42.20119H196.9025V171.78559h29.31508v13.61029ZM196.90269,246.202h29.31508v13.61029H196.90269V246.202Zm34.45961,0h29.31826v13.61029H231.3623V246.202Zm0-18.60489h29.31826v13.61029H231.3623V227.59708Zm0-18.60489h29.31826v13.61029H231.3623V208.99219Zm0-18.60489h29.31826v13.61029H231.3623V190.3873Zm0-18.6017h29.31826v13.61029H231.3623V171.78559Zm-34.45961,93.02127h29.31508v13.61029H196.90269V264.80686Zm34.45961,0h29.31826v13.61029H231.3623V264.80686Zm29.31826-98.019H231.3623V153.05347h29.31826v13.73434Zm-34.463,0H196.9025V153.05347h29.31508v13.73434Zm-34.45622,0H162.44627V153.05347h29.31508v13.73434Z"/>
  </g>
</svg>
